#N canvas 532 64 966 770 10;
#N canvas 548 289 942 306 window 0;
#X obj 441 124 tgl 15 0 empty empty empty 17 7 0 10 -262144 -1 -1 0
1;
#X obj 28 154 tgl 15 0 empty empty empty 17 7 0 10 -262144 -1 -1 1
1;
#X obj 21 0 inlet;
#X obj 30 97 sel 1 2;
#X msg 26 121 1;
#X msg 438 103 1;
#X msg 74 122 0;
#X obj 29 204 pdmtl/gems.win @dimen 320 240 @border 1 @fps 60 @lighting
1;
#X obj 454 184 pdmtl/gems.win @dimen 1024 768 @offset 1440 0 @border
0 @fps 60 @lighting 1;
#X obj 69 34 route list;
#X msg 137 75 offset \$1 \$2 \, dimen \$3 \$4 \, 1;
#X connect 0 0 8 0;
#X connect 1 0 7 0;
#X connect 2 0 9 0;
#X connect 3 0 4 0;
#X connect 3 1 5 0;
#X connect 3 2 6 0;
#X connect 4 0 1 0;
#X connect 5 0 0 0;
#X connect 6 0 1 0;
#X connect 9 0 10 0;
#X connect 9 1 3 0;
#X connect 10 0 8 0;
#X restore 42 -130 pd window;
#X obj 117 -158 hradio 15 1 0 3 empty empty X/W/F 0 -8 0 10 -261234
-1 -1 1;
#X obj 204 -404 bng 15 250 50 0 empty panic-r panic(ESC) 17 7 0 10
-260097 -1 -1;
#N canvas 105 159 450 300 panic 0;
#X obj 56 43 inlet;
#X obj 56 95 s PANIC;
#X obj 198 43 key;
#X obj 198 79 sel 27;
#X connect 0 0 1 0;
#X connect 2 0 3 0;
#X connect 3 0 1 0;
#X restore 204 -384 pd panic;
#X obj 298 23 tvestroy/feedback;
#X text 164 -86 some cool stuff happens when sequences are half off
synced;
#X obj 116 -237 loadbang;
#X msg 115 -211 1;
#X obj 53 -355 netreceive 9999 1;
#X obj 52 -279 s fb;
#X obj 375 -57 r fb;
#X obj 305 -35 > 0;
#X obj 90 -278 s fd;
#X obj 419 -58 r fd;
#N canvas 378 56 1302 726 colors 0;
#X obj 227 53 inlet;
#X obj 154 535 gemhead;
#X msg 262 548 1 1 1;
#X msg 354 577 1 0 0;
#X obj 217 599 world_light;
#X obj 259 524 loadbang;
#X obj 120 335 metro 100;
#X obj 191 426 tgl 15 0 empty empty empty 17 7 0 10 -262144 -1 -1 0
1;
#X obj 445 26 inlet;
#X obj 577 38 inlet;
#X obj 359 527 pack f f f;
#X obj 371 479 t b f;
#X obj 449 477 t b f;
#X obj 281 183 / 127;
#X obj 282 212 * 500;
#X obj 171 134 sel 0 127;
#X msg 129 225 0 0;
#X obj 70 269 loadbang;
#X msg 71 294 1;
#X obj 131 367 spigot;
#X obj 148 261 unpack f f;
#X msg 284 259 1;
#X obj 399 316 metro 100;
#X obj 470 407 tgl 15 0 empty empty empty 17 7 0 10 -262144 -1 -1 0
1;
#X obj 560 164 / 127;
#X obj 561 193 * 500;
#X obj 450 115 sel 0 127;
#X msg 408 206 0 0;
#X obj 349 250 loadbang;
#X msg 350 275 1;
#X obj 410 348 spigot;
#X obj 427 242 unpack f f;
#X msg 563 240 1;
#X obj 686 331 metro 100;
#X obj 757 422 tgl 15 0 empty empty empty 17 7 0 10 -262144 -1 -1 0
1;
#X obj 847 179 / 127;
#X obj 848 208 * 500;
#X obj 737 130 sel 0 127;
#X msg 695 221 0 0;
#X obj 636 265 loadbang;
#X msg 637 290 1;
#X obj 697 363 spigot;
#X obj 714 257 unpack f f;
#X msg 850 255 1;
#X floatatom 528 84 5 0 0 0 - - -;
#X msg 187 213 0 1;
#X msg 466 194 0 1;
#X msg 753 209 0 1;
#X connect 0 0 15 0;
#X connect 1 0 4 0;
#X connect 2 0 10 0;
#X connect 3 0 4 1;
#X connect 5 0 2 0;
#X connect 6 0 19 0;
#X connect 7 0 10 0;
#X connect 8 0 26 0;
#X connect 8 0 44 0;
#X connect 9 0 37 0;
#X connect 10 0 4 1;
#X connect 11 0 10 0;
#X connect 11 1 10 1;
#X connect 12 0 10 0;
#X connect 12 1 10 2;
#X connect 13 0 14 0;
#X connect 14 0 6 1;
#X connect 14 0 21 0;
#X connect 15 0 16 0;
#X connect 15 1 45 0;
#X connect 15 2 13 0;
#X connect 16 0 20 0;
#X connect 17 0 18 0;
#X connect 18 0 6 0;
#X connect 19 0 7 0;
#X connect 20 0 19 1;
#X connect 20 1 7 0;
#X connect 21 0 19 1;
#X connect 22 0 30 0;
#X connect 23 0 11 0;
#X connect 24 0 25 0;
#X connect 25 0 22 1;
#X connect 25 0 32 0;
#X connect 26 0 27 0;
#X connect 26 1 46 0;
#X connect 26 2 24 0;
#X connect 27 0 31 0;
#X connect 28 0 29 0;
#X connect 29 0 22 0;
#X connect 30 0 23 0;
#X connect 31 0 30 1;
#X connect 31 1 23 0;
#X connect 32 0 30 1;
#X connect 33 0 41 0;
#X connect 34 0 12 0;
#X connect 35 0 36 0;
#X connect 36 0 33 1;
#X connect 36 0 43 0;
#X connect 37 0 38 0;
#X connect 37 1 47 0;
#X connect 37 2 35 0;
#X connect 38 0 42 0;
#X connect 39 0 40 0;
#X connect 40 0 33 0;
#X connect 41 0 34 0;
#X connect 42 0 41 1;
#X connect 42 1 34 0;
#X connect 43 0 41 1;
#X connect 45 0 20 0;
#X connect 46 0 31 0;
#X connect 47 0 42 0;
#X restore 136 -281 pd colors;
#X obj 202 -288 s adirect;
#X obj 298 -8 change;
#X obj 491 -274 value TV4interval;
#X msg 495 -297 500;
#X obj 495 -322 loadbang;
#N canvas 477 247 1018 692 networking 0;
#X obj 118 443 list;
#X msg 115 482 \; \$1 \$2 \$3;
#X obj 115 377 list prepend d;
#X obj 120 239 unpack f f f;
#X obj 206 297 < 0;
#X obj 114 329 demultiplex;
#X obj 159 265 t f f;
#X obj 116 296 pack f f f;
#X obj 365 317 unpack f f f;
#X obj 354 350 pack;
#X obj 397 461 list;
#X obj 361 379 list prepend d;
#X msg 405 486 \; \$1 \$2;
#X obj 59 225 s PANIC;
#X obj 91 124 s CUE;
#X obj 113 354 pdmtl/list.split 1;
#X obj 115 411 pdmtl/convert.list2symbol _;
#X obj 361 413 pdmtl/convert.list2symbol _;
#X obj 78 30 inlet;
#X obj 69 77 route p cue intro;
#X obj 181 123 s intro;
#X connect 0 0 1 0;
#X connect 2 0 16 0;
#X connect 3 0 7 0;
#X connect 3 1 6 0;
#X connect 3 2 7 2;
#X connect 4 0 5 1;
#X connect 5 0 15 0;
#X connect 5 1 8 0;
#X connect 6 0 7 1;
#X connect 6 1 4 0;
#X connect 7 0 5 0;
#X connect 8 0 9 0;
#X connect 8 1 9 1;
#X connect 8 2 10 1;
#X connect 9 0 11 0;
#X connect 10 0 12 0;
#X connect 11 0 17 0;
#X connect 15 0 2 0;
#X connect 15 1 0 1;
#X connect 16 0 0 0;
#X connect 17 0 10 0;
#X connect 18 0 19 0;
#X connect 19 0 13 0;
#X connect 19 1 14 0;
#X connect 19 2 20 0;
#X connect 19 3 3 0;
#X restore 257 -194 pd networking;
#X obj 256 -222 netreceive 7893 1;
#X obj -24 -280 loadbang;
#X msg -27 -243 \; pd dsp 1;
#X obj 292 -329 ./video;
#X obj 53 -331 route fb fd RB GB SCREEN T P BB;
#X msg 188 -148 0 0 720 480;
#X connect 1 0 0 0;
#X connect 2 0 3 0;
#X connect 6 0 7 0;
#X connect 7 0 1 0;
#X connect 8 0 25 0;
#X connect 10 0 11 0;
#X connect 10 0 4 1;
#X connect 11 0 16 0;
#X connect 13 0 4 2;
#X connect 16 0 4 0;
#X connect 18 0 17 0;
#X connect 19 0 18 0;
#X connect 21 0 20 0;
#X connect 22 0 23 0;
#X connect 25 0 9 0;
#X connect 25 1 12 0;
#X connect 25 2 14 0;
#X connect 25 3 14 1;
#X connect 25 4 0 0;
#X connect 25 5 15 0;
#X connect 25 6 2 0;
#X connect 25 7 14 2;
#X connect 26 0 0 0;
