#N canvas 697 183 450 300 10;
#X obj 121 81 sel \$1;
#X obj 189 66 keyname;
#X obj 283 91 sel Caps_Lock;
#X obj 247 138 spigot;
#X msg 287 112 1;
#X msg 347 114 0;
#X obj 116 180 spigot;
#X obj 119 212 outlet;
#X obj 57 29 keyname;
#X obj 61 132 spigot;
#X msg 101 106 1;
#X msg 161 108 0;
#X connect 0 0 10 0;
#X connect 0 1 11 0;
#X connect 1 0 3 0;
#X connect 1 1 2 0;
#X connect 2 0 4 0;
#X connect 2 1 5 0;
#X connect 3 0 6 1;
#X connect 4 0 3 1;
#X connect 5 0 3 1;
#X connect 6 0 7 0;
#X connect 8 0 9 0;
#X connect 8 1 0 0;
#X connect 9 0 6 0;
#X connect 10 0 9 1;
#X connect 11 0 9 1;
