#N canvas 294 110 1600 827 10;
#X declare -lib iemmatrix;
#X obj 32 10 send A+B_IP;
#X obj 31 -40 loadbang;
#X obj 82 435 hsl 128 15 0 127 0 0 empty empty empty -2 -8 0 10 -262144
-1 -1 12100 1;
#N canvas 0 22 932 747 netsend 0;
#X obj 73 181 netsend 1;
#X obj 210 89 receive A+B_IP;
#X obj 210 119 symbol;
#X obj 77 5 inlet;
#X obj 79 54 cyclone/prepend send;
#X msg 209 146 disconnect \, connect \$1 9999;
#X connect 1 0 2 0;
#X connect 2 0 5 0;
#X connect 3 0 4 0;
#X connect 4 0 0 0;
#X connect 5 0 0 0;
#X restore 57 537 pd netsend 9999;
#X obj 78 457 cyclone/prepend fb;
#N canvas 481 160 542 376 selectors 0;
#N canvas 506 181 802 719 aselector 1;
#X obj -115 436 - 100;
#X obj 43 146 + 100;
#X obj -117 462 t f f;
#X obj -128 543 pack;
#X obj 109 147 + 110;
#X obj -139 498 div 10;
#X obj -68 498 mod 10;
#X obj 166 142 + 120;
#X obj 257 138 + 130;
#X obj 333 145 + 150;
#X obj 409 148 + 160;
#X obj 346 209 + 170;
#X obj 283 52 + 140;
#X obj -115 409 t f b;
#X obj 150 360 - 100;
#X obj 426 395 loadbang;
#X obj -120 385 change -1;
#X obj 113 314 change -1;
#X obj 425 209 + 180;
#X obj 348 264 + 190;
#X obj 399 270 + 200;
#X obj 500 278 + 210;
#X obj 521 336 + 220;
#X msg 20 427 13;
#X msg 427 416 13;
#X obj 18 455 pdmtl/flow.iter;
#X obj 426 445 pdmtl/flow.iter;
#X msg 321 363 13;
#X obj 310 426 pdmtl/flow.iter;
#X obj -103 71 inlet;
#X obj 59 336 outlet;
#X obj 294 11 r asel4;
#X obj 268 97 r asel3;
#X obj 337 98 r asel5;
#X obj 416 95 r asel6;
#X obj 192 97 r asel2;
#X obj 112 102 r asel1;
#X obj 43 103 r asel0;
#X msg 293 485 \; asel\$1r color 0 0 22;
#X msg 427 470 \; asel\$1r color 0 22 22;
#X msg -127 573 \; asel\$1r set \$2 \; asel\$1r color 0 22 22;
#X msg 1 514 \; asel\$1r color 0 0 22;
#X obj 343 180 r asel7;
#X obj 423 180 r asel8;
#X obj 347 236 r asel9;
#X obj 400 240 r asel10;
#X obj 501 248 r asel11;
#X obj 523 306 r asel12;
#X obj 487 35 inlet;
#X obj 100 205 t f f;
#X obj 169 258 t f b;
#X obj 218 543 t f f;
#X obj 207 624 pack;
#X obj 196 579 div 10;
#X obj 267 579 mod 10;
#X msg 307 651 \; asel\$1r set \$2 \; asel\$1r color 0 13 22;
#X connect 0 0 2 0;
#X connect 1 0 49 0;
#X connect 2 0 5 0;
#X connect 2 1 6 0;
#X connect 3 0 40 0;
#X connect 4 0 49 0;
#X connect 5 0 3 0;
#X connect 6 0 3 1;
#X connect 7 0 49 0;
#X connect 8 0 49 0;
#X connect 9 0 49 0;
#X connect 10 0 49 0;
#X connect 11 0 49 0;
#X connect 12 0 49 0;
#X connect 13 0 0 0;
#X connect 13 1 23 0;
#X connect 14 0 51 0;
#X connect 15 0 24 0;
#X connect 16 0 13 0;
#X connect 17 0 14 0;
#X connect 18 0 49 0;
#X connect 19 0 49 0;
#X connect 20 0 49 0;
#X connect 21 0 49 0;
#X connect 22 0 49 0;
#X connect 23 0 25 0;
#X connect 24 0 26 0;
#X connect 25 0 41 0;
#X connect 26 0 39 0;
#X connect 27 0 28 0;
#X connect 28 0 38 0;
#X connect 29 0 16 0;
#X connect 31 0 12 0;
#X connect 32 0 8 0;
#X connect 33 0 9 0;
#X connect 34 0 10 0;
#X connect 35 0 7 0;
#X connect 36 0 4 0;
#X connect 37 0 1 0;
#X connect 42 0 11 0;
#X connect 43 0 18 0;
#X connect 44 0 19 0;
#X connect 45 0 20 0;
#X connect 46 0 21 0;
#X connect 47 0 22 0;
#X connect 48 0 50 0;
#X connect 49 0 30 0;
#X connect 49 1 50 0;
#X connect 50 0 17 0;
#X connect 50 1 27 0;
#X connect 51 0 53 0;
#X connect 51 1 54 0;
#X connect 52 0 55 0;
#X connect 53 0 52 0;
#X connect 54 0 52 1;
#X restore 68 167 pd aselector;
#N canvas 642 274 740 564 selector 0;
#X obj 43 103 r sel0;
#X obj 112 102 r sel1;
#X obj 192 97 r sel2;
#X obj 43 146 + 100;
#X obj 109 147 + 110;
#X obj 166 142 + 120;
#X obj 268 97 r sel3;
#X obj 257 138 + 130;
#X obj 337 98 r sel5;
#X obj 333 145 + 150;
#X obj 416 95 r sel6;
#X obj 409 148 + 160;
#X obj 343 180 r sel7;
#X obj 346 209 + 170;
#X obj 294 11 r sel4;
#X obj 283 52 + 140;
#X obj 299 335 - 100;
#X obj 299 358 div 10;
#X msg 300 379 \; sel\$1r color 0 13 22;
#X obj 426 395 loadbang;
#X obj 425 209 + 180;
#X obj 423 180 r sel8;
#X obj 347 235 r sel9;
#X obj 348 264 + 190;
#X obj 400 240 r sel10;
#X obj 399 270 + 200;
#X obj 501 248 r sel11;
#X obj 500 278 + 210;
#X obj 522 306 r sel12;
#X obj 521 336 + 220;
#X msg 427 416 13;
#X obj 426 445 pdmtl/flow.iter;
#X obj 188 505 outlet;
#X msg 427 470 \; sel\$1r color 0 0 22;
#X obj 100 205 t f f b;
#X connect 0 0 3 0;
#X connect 1 0 4 0;
#X connect 2 0 5 0;
#X connect 3 0 34 0;
#X connect 4 0 34 0;
#X connect 5 0 34 0;
#X connect 6 0 7 0;
#X connect 7 0 34 0;
#X connect 8 0 9 0;
#X connect 9 0 34 0;
#X connect 10 0 11 0;
#X connect 11 0 34 0;
#X connect 12 0 13 0;
#X connect 13 0 34 0;
#X connect 14 0 15 0;
#X connect 15 0 34 0;
#X connect 16 0 17 0;
#X connect 17 0 18 0;
#X connect 19 0 30 0;
#X connect 20 0 34 0;
#X connect 21 0 20 0;
#X connect 22 0 23 0;
#X connect 23 0 34 0;
#X connect 24 0 25 0;
#X connect 25 0 34 0;
#X connect 26 0 27 0;
#X connect 27 0 34 0;
#X connect 28 0 29 0;
#X connect 29 0 34 0;
#X connect 30 0 31 0;
#X connect 31 0 33 0;
#X connect 34 0 32 0;
#X connect 34 1 16 0;
#X connect 34 2 30 0;
#X restore 347 131 pd selector;
#X obj 106 42 r acurrentPattern;
#X obj 66 203 s aPATTERN;
#X obj 319 193 s PATTERN;
#X obj 225 186 vradio 15 1 0 10 asel11 asel11r empty 0 -8 0 10 -262144
-262144 -1 0;
#X connect 0 0 3 0;
#X connect 1 0 0 1;
#X connect 1 0 4 0;
#X connect 2 0 0 0;
#X restore 283 6 pd selectors;
#X obj 84 484 hsl 128 15 0 127 0 0 empty empty empty -2 -8 0 10 -262144
-1 -1 6700 1;
#X obj 81 507 cyclone/prepend fd;
#X obj 40 -103 pdmtl/timing.chronometer_;
#X text 66 127 Colorbar;
#X text 72 251 Rings1;
#X text 73 283 Rings(double);
#X text 73 267 Rings2(high);
#X text 287 97 Blink+beat0;
#X text 285 141 Blink(hicup1);
#X text 70 355 Rings(TRANSITION);
#X text 745 273 Squaresynth beat;
#X text 745 302 Squaresynth(hicups);
#X text 744 417 GrandPiano;
#X text 746 431 GrandPiano+beat;
#X text 743 460 GrandPiano(hiccup);
#X text 1000 252 Overbeat;
#X text 999 281 Just the beat;
#X text 503 253 SweatBeat0;
#X text 504 268 SweatBeat1;
#X text 504 283 SweatBeat2a;
#X text 503 202 Up&down+beat1+wash(RELEASE);
#X text 67 65 Title screen(TAKEOVER);
#X text 499 514 BigWash(TRANSITION);
#X text 502 529 LittleNoise;
#X text 501 544 LittleNoise(TRANSITION);
#X text 745 318 BigBeat;
#X text 747 335 Bridge;
#X text 747 289 Squaresynth beat(hicup);
#X text 1001 65 Beat0;
#X text 1007 153 Beat1;
#X text 1000 267 Overbeat(TRANSITION);
#X text 999 237 Colorbuildup(TRANSITION);
#X text 1000 346 beat1b;
#X text 1003 329 beat1a;
#X text 64 144 Colorbar+snare(TRANSITION);
#X text 68 158 Zooming title(TRANSITION);
#X text 284 81 Blink(hicup0);
#X text 285 111 Blink(hicup0)(RELEASE);
#X text 286 155 Blink+beat(1);
#X text 285 125 Blink+beat1(4);
#X text 1002 169 Beat3;
#X text 997 486 End;
#X text 149 232 2m40;
#X text 346 55 4m15;
#X text 567 50 7m13;
#X text 998 468 StrobeAll;
#X text 74 297 Rings(double2);
#X text 72 313 Rings2(high2);
#X text 999 407 tuning(TRANSITION);
#X text 509 70 Up&down0x4;
#X text 509 84 Up&down(TRANSITION)x1;
#X text 505 99 Up&down+beat0x4;
#X text 507 188 Phat u&d;
#X text 508 176 Phat TRANSITION;
#X text 508 113 Up&down+beat1x4;
#X text 507 141 Up&down+beat54+wash;
#X text 508 159 Up&down+beat70+wash;
#X text 504 468 SweatBeat2b(TAKEOVER);
#X text 1060 167 signal at 50;
#X text 1000 197 @51 retourne a beat3 a 53;
#X text 1002 184 Beat1(TRANSITION TO COLOR);
#X text 1000 315 beat0b;
#X text 509 126 TRANSITION*up&down only);
#X text 745 508 GrandPiano(hiccup);
#X text 741 523 GrandPiano(hiccup) release;
#X text 743 353 Squaresynth(transition);
#X text 746 446 GrandPiano+beat transition;
#X text 742 494 GrandPiano+beat+more;
#X text 743 477 GrandPiano+beat+more trans;
#X text 998 357 pause;
#X text 999 298 beat0 transition;
#X text 999 370 TO TUNE;
#X text 72 237 Rings0 (110);
#X text 744 244 Squaresynth intro (Trans);
#X text 743 257 Squaresynth zooming (Trans);
#X text 288 65 Blink0;
#X text 46 48 A) 100;
#X text 49 222 B) 110;
#X text 265 49 C) 120;
#X text 486 51 E) 130;
#X text 485 221 F) 200;
#X text 486 391 G) 140;
#X text 725 230 I) 150;
#X text 726 400 J) 160;
#X text 935 48 K) 190;
#X text 936 220 L) 170;
#X text 939 393 M) 180;
#X text 265 222 D) 220;
#X text 287 370 Blink(TRANSITION);
#X text 288 357 Blink+beat(TAKEOVER);
#X text 288 201 Blink + beat;
#X text 285 172 Blink total + beat(-strobe);
#X text 364 157 comment;
#X text 286 237 Blink+beat(1);
#X text 286 341 go to takeover;
#X text 505 315 SweatBeat2b;
#X text 505 299 SweatBeat2b + wipe;
#X text 504 240 intro sweatbeat;
#X text 1001 82 Beat0;
#X text 1001 98 Beat0;
#X text 1001 125 Beat-1;
#X text 1000 112 Beat0;
#X text 284 186 Blink + beat (bridge);
#X text 285 326 Blink special line ?;
#X text 504 331 SweatBeat;
#X text 505 346 SweatBeat;
#X text 504 360 SweatBeat(raccord);
#X obj 954 67 vradio 15 1 0 10 asel9 asel9r empty 0 -8 0 10 -262144
-1 -1 5;
#X obj 956 240 vradio 15 1 0 10 asel7 asel7r empty 0 -8 0 10 -262144
-262144 -1 3;
#X obj 958 412 vradio 15 1 0 10 asel8 asel8r empty 0 -8 0 10 -262144
-262144 -1 0;
#X obj 703 245 vradio 15 1 0 10 asel5 asel5r empty 0 -8 0 10 -262144
-262144 -1 3;
#X obj 704 416 vradio 15 1 0 10 asel6 asel6r empty 0 -8 0 10 -262144
-262144 -1 3;
#X obj 468 68 vradio 15 1 0 10 asel3 asel3r empty 0 -8 0 10 -262144
-262144 -1 8;
#X obj 468 236 vradio 15 1 0 10 asel10 asel10r empty 0 -8 0 10 -262144
-262144 -1 7;
#X obj 469 408 vradio 15 1 0 10 asel4 asel4r empty 0 -8 0 10 -262144
-262144 -1 0;
#X obj 242 67 vradio 15 1 0 10 asel2 asel2r empty 0 -8 0 10 -262144
-262144 -1 5;
#X obj 241 239 vradio 15 1 0 10 asel12 asel12r empty 0 -8 0 10 -262144
-262144 -1 0;
#X obj 30 68 vradio 15 1 0 10 asel0 asel0r empty 0 -8 0 10 -262144
-262144 -1 6;
#X obj 32 239 vradio 15 1 0 10 asel1 asel1r empty 0 -8 0 10 -262144
-262144 -1 4;
#X text 993 423 BLINK;
#X text 996 455 Tostrobe;
#X text 997 437 HOLD;
#X text 743 366 Just the line;
#X text 742 379 Just the squaresynth;
#X text 507 407 ...;
#X text 506 419 ...;
#X text 506 436 ...;
#X text 509 453 ...;
#X text 282 252 ...;
#X text 281 264 ...;
#X text 281 281 ...;
#X text 284 298 ...;
#X text 1003 140 Beat-2;
#X obj 239 -28 bng 15 250 50 0 empty empty show 17 7 0 10 -159808 -262144
-1;
#N canvas 281 283 1332 767 sequencer 1;
#X obj 53 105 bng 15 250 50 0 empty empty empty 17 7 0 10 -262144 -1
-1;
#X obj 115 103 loadbang;
#X msg 117 125 stop;
#X obj 53 77 inlet;
#X floatatom 537 150 5 0 0 0 - - -;
#X obj 542 91 inlet;
#X msg 4 361 pattern \$1;
#X msg 186 124 pattern \$1;
#X obj 189 73 r PATTERN;
#X obj 473 647 outlet pattern;
#X obj 640 407 t a b;
#X obj 657 503 netsend 1;
#X obj 4 84 inlet;
#X obj 3 121 sel 1 0;
#X msg 5 146 play;
#X msg 45 144 stop;
#X obj 40 293 unpack f f;
#X obj 591 647 outlet pattern;
#X msg 582 362 send \$1 \$2 \$3;
#X msg 726 344 send p;
#X msg 132 349 pattern \$1;
#X obj 730 241 key;
#X obj 730 277 sel 27;
#X obj 302 284 r TRIG;
#X obj 335 507 s acurrentPattern;
#X msg 317 119 pattern \$1;
#X obj 317 75 r aPATTERN;
#X obj 479 515 s bcurrentPattern;
#X msg 434 115 pattern \$1;
#X obj 444 66 r bPATTERN;
#X obj 376 137 r SAVE;
#X obj 27 230 pdmtl/seq.tracker4 @id tom_a @timing TV4T @trigger follow
;
#X msg 375 185 write a.sequence;
#X msg 501 186 write b.sequence;
#X msg 668 170 read a.sequence;
#X msg 794 171 read b.sequence;
#X obj 675 151 r LOAD;
#X obj 377 162 route A B;
#X obj 385 365 spigot;
#X obj 190 98 t f b;
#X msg 251 158 1;
#X msg 441 379 0;
#X msg 410 407 set \$1 0;
#X obj 613 80 netsend 1;
#X obj 759 5 receive REMOTE_IP;
#X obj 759 31 symbol;
#X msg 759 56 disconnect \, connect \$1 8887;
#X msg 610 17 send B \$1;
#X msg 505 14 send A \$1;
#X obj 592 51 spigot;
#X obj -47 398 r adirect;
#X obj 80 519 cyclone/prepend send;
#X obj -48 561 netsend 1;
#X obj 671 534 tgl 15 0 empty empty empty 17 7 0 10 -262144 -1 -1 1
1;
#X obj -27 593 tgl 15 0 empty empty empty 17 7 0 10 -262144 -1 -1 1
1;
#X obj 791 340 receive A+B_IP;
#X obj 791 370 symbol;
#X msg 790 397 disconnect \, connect \$1 7892;
#X obj 20 411 receive A+B_IP;
#X obj 20 441 symbol;
#X msg 19 468 disconnect \, connect \$1 7893;
#X obj 122 434 pack f f f;
#X obj 124 401 pipe f f f 0;
#X obj 44 263 route 999 127;
#X obj 158 600 loadbang;
#X msg 163 626 disconnect \, connect localhost 7890;
#X obj 168 683 tgl 15 0 empty empty empty 17 7 0 10 -262144 -1 -1 1
1;
#X obj 863 629 send PATTERN;
#X obj 898 608 send TRIG;
#X obj 860 484 netreceive 7891 1;
#X obj 860 528 route pat trig cue;
#X obj 743 603 cyclone/prepend send cue;
#X msg 224 523 send play;
#X msg 201 461 send intro 1;
#X obj 224 396 unpack f f;
#X obj 269 422 moses 1;
#X msg 316 462 send intro 0;
#X msg 304 551 send stop;
#X obj 153 655 netsend 1;
#X obj 391 566 r PANIC;
#X obj 759 465 r bdirect;
#X connect 0 0 31 0;
#X connect 1 0 2 0;
#X connect 2 0 31 0;
#X connect 3 0 0 0;
#X connect 4 0 62 3;
#X connect 5 0 4 0;
#X connect 6 0 31 0;
#X connect 7 0 31 0;
#X connect 8 0 39 0;
#X connect 10 0 11 0;
#X connect 11 0 53 0;
#X connect 12 0 13 0;
#X connect 13 0 14 0;
#X connect 13 1 15 0;
#X connect 14 0 31 0;
#X connect 15 0 31 0;
#X connect 16 1 20 0;
#X connect 16 1 6 0;
#X connect 18 0 10 0;
#X connect 19 0 10 0;
#X connect 21 0 22 0;
#X connect 22 0 19 0;
#X connect 23 0 18 0;
#X connect 23 0 51 0;
#X connect 25 0 31 0;
#X connect 26 0 25 0;
#X connect 29 0 28 0;
#X connect 30 0 37 0;
#X connect 31 0 63 0;
#X connect 31 5 9 0;
#X connect 31 5 24 0;
#X connect 31 5 38 0;
#X connect 31 5 48 0;
#X connect 32 0 31 0;
#X connect 34 0 31 0;
#X connect 36 0 34 0;
#X connect 36 0 35 0;
#X connect 37 0 32 0;
#X connect 37 1 33 0;
#X connect 38 0 42 0;
#X connect 38 0 41 0;
#X connect 39 0 7 0;
#X connect 39 1 40 0;
#X connect 40 0 38 1;
#X connect 41 0 38 1;
#X connect 43 0 49 1;
#X connect 44 0 45 0;
#X connect 45 0 46 0;
#X connect 46 0 43 0;
#X connect 47 0 49 0;
#X connect 48 0 49 0;
#X connect 49 0 43 0;
#X connect 50 0 62 0;
#X connect 51 0 52 0;
#X connect 52 0 54 0;
#X connect 55 0 56 0;
#X connect 56 0 57 0;
#X connect 57 0 11 0;
#X connect 58 0 59 0;
#X connect 59 0 60 0;
#X connect 60 0 52 0;
#X connect 61 0 51 0;
#X connect 62 0 61 0;
#X connect 62 1 61 1;
#X connect 62 2 61 2;
#X connect 63 0 16 0;
#X connect 63 1 74 0;
#X connect 63 2 62 0;
#X connect 64 0 65 0;
#X connect 65 0 78 0;
#X connect 69 0 70 0;
#X connect 70 0 67 0;
#X connect 70 1 68 0;
#X connect 70 2 71 0;
#X connect 71 0 11 0;
#X connect 71 0 52 0;
#X connect 72 0 78 0;
#X connect 73 0 52 0;
#X connect 73 0 11 0;
#X connect 74 1 75 0;
#X connect 75 0 76 0;
#X connect 75 0 77 0;
#X connect 75 1 73 0;
#X connect 75 1 72 0;
#X connect 76 0 52 0;
#X connect 76 0 11 0;
#X connect 77 0 78 0;
#X connect 78 0 66 0;
#X connect 79 0 77 0;
#X connect 79 0 76 0;
#X connect 80 0 18 0;
#X restore 183 -1 pd sequencer;
#X obj 184 -31 tgl 15 0 empty play_control play 17 7 0 10 -4034 -1
-1 1 1;
#X floatatom 297 -23 5 0 0 0 - - -;
#X obj 298 -71 loadbang;
#N canvas 281 298 655 336 timing 0;
#X obj 32 20 bng 15 250 50 0 empty empty empty 17 7 0 10 -262144 -1
-1;
#X obj 32 52 outlet;
#X obj 211 48 value TV4interval;
#X floatatom 211 21 5 0 0 0 - - -;
#X obj 33 -8 pdmtl/seq.timing.master @id TV4T;
#X connect 0 0 1 0;
#X connect 3 0 2 0;
#X connect 4 0 0 0;
#X connect 4 2 3 0;
#X restore 496 -19 pd timing;
#X obj 496 8 bng 15 250 50 0 empty empty empty 17 7 0 10 -262144 -1
-1;
#X msg 297 -46 16;
#X floatatom 201 31 5 0 0 0 - - -;
#X msg 32 -14 localhost;
#N canvas 548 289 942 306 window 0;
#X obj 441 124 tgl 15 0 empty empty empty 17 7 0 10 -262144 -1 -1 1
1;
#X obj 28 154 tgl 15 0 empty empty empty 17 7 0 10 -262144 -1 -1 1
1;
#X obj 21 0 inlet;
#X obj 30 97 sel 1 2;
#X msg 26 121 1;
#X msg 438 103 1;
#X msg 74 122 0;
#X obj 29 204 pdmtl/gems.win @dimen 320 240 @border 1 @fps 60 @lighting
1;
#X obj 454 184 pdmtl/gems.win @dimen 1024 768 @offset 1440 0 @border
0 @fps 60 @lighting 1;
#X obj 69 34 route list;
#X msg 137 75 offset \$1 \$2 \, dimen \$3 \$4 \, 1;
#X connect 0 0 8 0;
#X connect 1 0 7 0;
#X connect 2 0 9 0;
#X connect 3 0 4 0;
#X connect 3 1 5 0;
#X connect 3 2 6 0;
#X connect 4 0 1 0;
#X connect 5 0 0 0;
#X connect 6 0 1 0;
#X connect 9 0 10 0;
#X connect 9 1 3 0;
#X connect 10 0 8 0;
#X restore 709 128 pd window;
#X obj 763 90 hradio 15 1 0 3 empty empty X/W/F 0 -8 0 10 -261234 -1
-1 1;
#X obj 964 -47 bng 15 250 50 0 empty panic-r panic(ESC) 17 7 0 10 -260097
-1 -1;
#N canvas 105 159 450 300 panic 0;
#X obj 56 43 inlet;
#X obj 56 95 s PANIC;
#X obj 198 43 key;
#X obj 198 79 sel 27;
#X connect 0 0 1 0;
#X connect 2 0 3 0;
#X connect 3 0 1 0;
#X restore 964 -27 pd panic;
#X obj 262 -18 tvestroy/feedback;
#X obj 762 11 loadbang;
#X msg 761 37 1;
#X obj 699 -107 netreceive 9999 1;
#X obj 698 -31 s fb;
#X obj 339 -98 r fb;
#X obj 269 -76 > 0;
#X obj 736 -30 s fd;
#X obj 383 -99 r fd;
#N canvas 378 56 1302 726 colors 0;
#X obj 227 53 inlet;
#X obj 154 535 gemhead;
#X msg 262 548 1 1 1;
#X msg 354 577 1 0 0;
#X obj 217 599 world_light;
#X obj 259 524 loadbang;
#X obj 120 335 metro 100;
#X obj 191 426 tgl 15 0 empty empty empty 17 7 0 10 -262144 -1 -1 0
1;
#X obj 445 26 inlet;
#X obj 577 38 inlet;
#X obj 359 527 pack f f f;
#X obj 371 479 t b f;
#X obj 449 477 t b f;
#X obj 281 183 / 127;
#X obj 282 212 * 500;
#X obj 171 134 sel 0 127;
#X msg 129 225 0 0;
#X obj 70 269 loadbang;
#X msg 71 294 1;
#X obj 131 367 spigot;
#X obj 148 261 unpack f f;
#X msg 284 259 1;
#X obj 399 316 metro 100;
#X obj 470 407 tgl 15 0 empty empty empty 17 7 0 10 -262144 -1 -1 0
1;
#X obj 560 164 / 127;
#X obj 561 193 * 500;
#X obj 450 115 sel 0 127;
#X msg 408 206 0 0;
#X obj 349 250 loadbang;
#X msg 350 275 1;
#X obj 410 348 spigot;
#X obj 427 242 unpack f f;
#X msg 563 240 1;
#X obj 686 331 metro 100;
#X obj 757 422 tgl 15 0 empty empty empty 17 7 0 10 -262144 -1 -1 0
1;
#X obj 847 179 / 127;
#X obj 848 208 * 500;
#X obj 737 130 sel 0 127;
#X msg 695 221 0 0;
#X obj 636 265 loadbang;
#X msg 637 290 1;
#X obj 697 363 spigot;
#X obj 714 257 unpack f f;
#X msg 850 255 1;
#X floatatom 528 84 5 0 0 0 - - -;
#X msg 187 213 0 1;
#X msg 466 194 0 1;
#X msg 753 209 0 1;
#X connect 0 0 15 0;
#X connect 1 0 4 0;
#X connect 2 0 10 0;
#X connect 3 0 4 1;
#X connect 5 0 2 0;
#X connect 6 0 19 0;
#X connect 7 0 10 0;
#X connect 8 0 26 0;
#X connect 8 0 44 0;
#X connect 9 0 37 0;
#X connect 10 0 4 1;
#X connect 11 0 10 0;
#X connect 11 1 10 1;
#X connect 12 0 10 0;
#X connect 12 1 10 2;
#X connect 13 0 14 0;
#X connect 14 0 6 1;
#X connect 14 0 21 0;
#X connect 15 0 16 0;
#X connect 15 1 45 0;
#X connect 15 2 13 0;
#X connect 16 0 20 0;
#X connect 17 0 18 0;
#X connect 18 0 6 0;
#X connect 19 0 7 0;
#X connect 20 0 19 1;
#X connect 20 1 7 0;
#X connect 21 0 19 1;
#X connect 22 0 30 0;
#X connect 23 0 11 0;
#X connect 24 0 25 0;
#X connect 25 0 22 1;
#X connect 25 0 32 0;
#X connect 26 0 27 0;
#X connect 26 1 46 0;
#X connect 26 2 24 0;
#X connect 27 0 31 0;
#X connect 28 0 29 0;
#X connect 29 0 22 0;
#X connect 30 0 23 0;
#X connect 31 0 30 1;
#X connect 31 1 23 0;
#X connect 32 0 30 1;
#X connect 33 0 41 0;
#X connect 34 0 12 0;
#X connect 35 0 36 0;
#X connect 36 0 33 1;
#X connect 36 0 43 0;
#X connect 37 0 38 0;
#X connect 37 1 47 0;
#X connect 37 2 35 0;
#X connect 38 0 42 0;
#X connect 39 0 40 0;
#X connect 40 0 33 0;
#X connect 41 0 34 0;
#X connect 42 0 41 1;
#X connect 42 1 34 0;
#X connect 43 0 41 1;
#X connect 45 0 20 0;
#X connect 46 0 31 0;
#X connect 47 0 42 0;
#X restore 782 -33 pd colors;
#X obj 848 -40 s adirect;
#X obj 262 -49 change;
#X obj 1571 605 value TV4interval;
#X msg 1575 582 500;
#X obj 1575 557 loadbang;
#N canvas 477 247 1018 692 networking 0;
#X obj 118 443 list;
#X msg 115 482 \; \$1 \$2 \$3;
#X obj 115 377 list prepend d;
#X obj 120 239 unpack f f f;
#X obj 206 297 < 0;
#X obj 114 329 demultiplex;
#X obj 159 265 t f f;
#X obj 116 296 pack f f f;
#X obj 365 317 unpack f f f;
#X obj 354 350 pack;
#X obj 397 461 list;
#X obj 361 379 list prepend d;
#X msg 405 486 \; \$1 \$2;
#X obj 59 225 s PANIC;
#X obj 91 124 s CUE;
#X obj 113 354 pdmtl/list.split 1;
#X obj 115 411 pdmtl/convert.list2symbol _;
#X obj 361 413 pdmtl/convert.list2symbol _;
#X obj 78 30 inlet;
#X obj 69 77 route p cue intro;
#X obj 181 123 s intro;
#X connect 0 0 1 0;
#X connect 2 0 16 0;
#X connect 3 0 7 0;
#X connect 3 1 6 0;
#X connect 3 2 7 2;
#X connect 4 0 5 1;
#X connect 5 0 15 0;
#X connect 5 1 8 0;
#X connect 6 0 7 1;
#X connect 6 1 4 0;
#X connect 7 0 5 0;
#X connect 8 0 9 0;
#X connect 8 1 9 1;
#X connect 8 2 10 1;
#X connect 9 0 11 0;
#X connect 10 0 12 0;
#X connect 11 0 17 0;
#X connect 15 0 2 0;
#X connect 15 1 0 1;
#X connect 16 0 0 0;
#X connect 17 0 10 0;
#X connect 18 0 19 0;
#X connect 19 0 13 0;
#X connect 19 1 14 0;
#X connect 19 2 20 0;
#X connect 19 3 3 0;
#X restore 486 -60 pd networking;
#X obj 485 -88 netreceive 7893 1;
#X obj 622 -32 loadbang;
#X msg 619 5 \; pd dsp 1;
#X obj 769 196 ./video;
#X obj 699 -83 route fb fd RB GB SCREEN T P BB;
#X msg 834 100 0 0 720 480;
#X obj 135 -60 loadbang;
#X msg 136 -38 1;
#X text 814 53 GEM WINDOW!;
#X text 257 441 This is released for education purposes only! Please
do not make any new work based on this without explicit permission
from Thomas Ouellet Fredericks : tof@t-o-f.info;
#X connect 1 0 148 0;
#X connect 2 0 4 0;
#X connect 4 0 3 0;
#X connect 6 0 7 0;
#X connect 7 0 3 0;
#X connect 139 0 140 1;
#X connect 140 0 147 0;
#X connect 141 0 140 0;
#X connect 142 0 140 2;
#X connect 143 0 146 0;
#X connect 144 0 145 0;
#X connect 146 0 142 0;
#X connect 148 0 0 0;
#X connect 150 0 149 0;
#X connect 151 0 152 0;
#X connect 154 0 155 0;
#X connect 155 0 150 0;
#X connect 156 0 173 0;
#X connect 158 0 159 0;
#X connect 158 0 153 1;
#X connect 159 0 164 0;
#X connect 161 0 153 2;
#X connect 164 0 153 0;
#X connect 166 0 165 0;
#X connect 167 0 166 0;
#X connect 169 0 168 0;
#X connect 170 0 171 0;
#X connect 173 0 157 0;
#X connect 173 1 160 0;
#X connect 173 2 162 0;
#X connect 173 3 162 1;
#X connect 173 4 149 0;
#X connect 173 5 163 0;
#X connect 173 6 151 0;
#X connect 173 7 162 2;
#X connect 174 0 149 0;
#X connect 175 0 176 0;
#X connect 176 0 141 0;
