#N canvas 831 41 736 444 10;
#N canvas 858 135 778 582 storyLine 0;
#X obj 72 23 tvestroy/ctl 0;
#X obj 239 100 t f f;
#X obj 276 130 pack f f;
#X obj 72 -32 inlet;
#X obj 26 300 tvestroy/title;
#X obj 589 246 s PANIC;
#X obj 589 219 b;
#X obj 144 298 tvestroy/intro;
#N canvas 487 207 450 300 colorbars 0;
#X obj 182 18 inlet;
#X obj 55 8 inlet;
#X obj 76 103 spigot;
#X floatatom 209 96 5 0 0 0 - - -;
#X obj 55 189 pdmtl/gems.bars.ntsc;
#X obj 54 157 pdmtl/gems.fit.scale fill;
#X connect 0 0 2 1;
#X connect 0 0 3 0;
#X connect 1 0 2 0;
#X connect 2 0 5 0;
#X connect 5 0 4 0;
#X restore 301 296 pd colorbars;
#N canvas 681 122 999 688 zoomingTitle 0;
#X obj 357 -30 inlet;
#X obj 424 293 line;
#X obj 228 311 scaleXYZ 8 8 8;
#X obj 232 356 scaleXYZ;
#X obj 467 200 * 64;
#X msg 290 175 0;
#X obj 425 368 expr pow(1-$f1 \, 3);
#X msg 474 251 0 \, 0.9 \$1;
#X obj 409 128 b;
#X obj 292 87 sel 0;
#X msg 407 217 1;
#X obj 40 -25 inlet;
#X obj 468 173 tvestroy/interval;
#X obj 229 287 pdmtl/gems.fit.scale fill;
#X obj 234 438 pdmtl/gems.text @font tvestroy/pixel.ttf @text TVESTROY
;
#X connect 0 0 9 0;
#X connect 1 0 6 0;
#X connect 2 0 3 0;
#X connect 3 0 14 0;
#X connect 4 0 7 0;
#X connect 5 0 1 0;
#X connect 6 0 3 1;
#X connect 6 0 3 2;
#X connect 6 0 3 3;
#X connect 7 0 1 0;
#X connect 8 0 10 0;
#X connect 8 0 12 0;
#X connect 9 0 5 0;
#X connect 9 1 8 0;
#X connect 11 0 13 0;
#X connect 12 0 4 0;
#X connect 13 0 2 0;
#X restore 427 297 pd zoomingTitle;
#X floatatom 169 88 5 0 0 0 - - -;
#X msg 488 106 0;
#N canvas 136 140 999 687 outingTitle 0;
#X obj 357 -30 inlet;
#X obj 424 293 line;
#X obj 228 311 scaleXYZ 8 8 8;
#X msg 290 175 0;
#X obj 392 369 expr pow(1-$f1 \, 3);
#X obj 409 128 b;
#X obj 292 87 sel 0;
#X msg 407 217 1;
#X obj 40 -25 inlet;
#X obj 468 173 tvestroy/interval;
#X obj 374 17 print;
#X text 504 196 64;
#X obj 232 356 scale;
#X obj 394 334 expr $f1*$f1*$f1*$f1;
#X msg 471 238 0.1 \, 1 \$1;
#X obj 467 200 * 64;
#X obj 229 287 pdmtl/gems.fit.scale fill;
#X obj 231 438 pdmtl/gems.text @font tvestroy/pixel.ttf @text TVESTROY
;
#X connect 0 0 6 0;
#X connect 0 0 10 0;
#X connect 1 0 13 0;
#X connect 2 0 12 0;
#X connect 3 0 1 0;
#X connect 5 0 7 0;
#X connect 5 0 9 0;
#X connect 6 0 3 0;
#X connect 6 1 5 0;
#X connect 8 0 16 0;
#X connect 9 0 15 0;
#X connect 12 0 17 0;
#X connect 13 0 12 1;
#X connect 14 0 1 0;
#X connect 15 0 14 0;
#X connect 16 0 2 0;
#X restore 563 298 pd outingTitle;
#X obj 660 295 tvestroy/titlewhite;
#X obj 275 159 route 1 2 3 4 5 6 0;
#X obj 69 124 demultiplex 0 1 2 3 4 5 6;
#X obj 239 71 pdmtl/midi.note.split;
#X connect 0 0 15 0;
#X connect 0 1 16 0;
#X connect 1 0 10 0;
#X connect 1 0 15 1;
#X connect 1 1 2 0;
#X connect 2 0 14 0;
#X connect 3 0 0 0;
#X connect 6 0 5 0;
#X connect 11 0 7 1;
#X connect 14 0 4 1;
#X connect 14 1 7 1;
#X connect 14 2 8 1;
#X connect 14 3 9 1;
#X connect 14 4 12 1;
#X connect 14 5 13 1;
#X connect 14 6 6 0;
#X connect 15 1 4 0;
#X connect 15 2 7 0;
#X connect 15 3 8 0;
#X connect 15 4 9 0;
#X connect 15 5 12 0;
#X connect 15 6 13 0;
#X connect 16 0 1 0;
#X connect 16 1 2 1;
#X connect 16 2 0 1;
#X connect 16 2 11 0;
#X restore -79 -123 pd storyLine;
#X obj -78 -81 tvestroy/strobe 2;
#X obj -78 45 tvestroy/upanddown 10;
#X obj -82 109 tvestroy/colorbellsynth 13;
#X obj -82 129 tvestroy/razorsynth 14;
#X obj -77 3 tvestroy/drumkit 8;
#X obj 37 -102 tvestroy/rings 21 2;
#X obj 31 -81 tvestroy/shorten 22;
#X obj 73 24 tvestroy/squaresynth 29 2;
#X obj -77 24 tvestroy/squaresynth 9 1;
#X text 139 -153 INSTRUMENTS;
#X obj -78 -18 tvestroy/multilignes 6 0;
#X obj 72 -18 tvestroy/multilignes 7 1;
#X obj 86 -39 tvestroy/simplelineTilts 5 1;
#X obj -78 -39 tvestroy/simplelineTilts 4;
#X obj 172 44 tvestroy/sickle 310;
#X obj 55 44 tvestroy/hammer 210;
#X obj 296 44 tvestroy/oldmovie 410;
#X obj -80 188 tvestroy/noise 40;
#X obj -81 148 tvestroy/colorbuildup 15;
#X obj -79 -103 tvestroy/rings 1 1;
#X obj 91 168 tvestroy/cubesynth 18 19 1;
#X obj -78 65 tvestroy/linescroller 11;
#X obj 155 -81 tvestroy/shortenstrobe 32;
#X obj 65 130 tvestroy/tuner 214;
#X obj -82 169 tvestroy/cubesynth 16 17 0;
#X obj -80 86 tvestroy/grandpiano 12;
#X obj -76 213 tvestroy/bj 666;
#X obj -78 -60 tvestroy/colorblind 3;
#X obj -66 236 tvestroy/plane 555;
