#N canvas 141 234 525 409 10;
#N canvas 221 339 684 335 tvestroy.line.scrolling 0;
#X obj 250 26 inlet;
#N canvas 113 211 831 557 lineScrolling 0;
#X obj 304 -1 inlet;
#X obj 103 432 translateXYZ;
#X msg 482 349 0;
#X obj 583 297 delay 500;
#X msg 573 167 stop;
#X obj 249 157 t b b b b;
#X obj 338 315 line;
#X msg 248 340 1;
#X obj 357 105 t b f;
#X obj 120 529 rectangle;
#X obj 113 474 scaleXYZ;
#X obj 56 31 inlet GEMLIST;
#X obj 113 342 spigot;
#X obj 52 98 separator;
#X obj 312 393 / 127;
#X obj 304 32 sel 0;
#X obj 490 109 t b b;
#X msg 221 242 -1 0;
#X obj 313 220 f 500;
#X msg 321 266 4 \$1;
#X obj 405 180 r \$0ms;
#X connect 0 0 15 0;
#X connect 1 0 10 0;
#X connect 2 0 12 1;
#X connect 3 0 2 0;
#X connect 4 0 3 0;
#X connect 5 0 18 0;
#X connect 5 1 17 0;
#X connect 5 2 3 0;
#X connect 5 3 4 0;
#X connect 5 3 7 0;
#X connect 6 0 1 2;
#X connect 7 0 12 1;
#X connect 8 0 5 0;
#X connect 8 1 14 0;
#X connect 10 0 9 0;
#X connect 11 0 13 0;
#X connect 12 0 1 0;
#X connect 13 0 12 0;
#X connect 14 0 10 2;
#X connect 15 0 16 0;
#X connect 15 1 8 0;
#X connect 16 0 2 0;
#X connect 16 1 4 0;
#X connect 17 0 6 0;
#X connect 18 0 19 0;
#X connect 19 0 6 0;
#X connect 20 0 18 1;
#X restore 62 260 pd lineScrolling;
#X obj 58 19 inlet;
#X obj 62 83 t a a a a;
#X obj 257 68 t a b;
#X obj 240 138 demultiplex 0 1 2 3;
#N canvas 113 396 831 557 lineScrolling 0;
#X obj 304 -1 inlet;
#X obj 103 432 translateXYZ;
#X msg 482 349 0;
#X obj 583 297 delay 500;
#X msg 573 167 stop;
#X obj 249 157 t b b b b;
#X obj 338 315 line;
#X msg 248 340 1;
#X obj 357 105 t b f;
#X obj 120 529 rectangle;
#X obj 113 474 scaleXYZ;
#X obj 56 31 inlet GEMLIST;
#X obj 113 342 spigot;
#X obj 52 98 separator;
#X obj 312 393 / 127;
#X obj 304 32 sel 0;
#X obj 490 109 t b b;
#X msg 221 242 -1 0;
#X obj 313 220 f 500;
#X msg 321 266 4 \$1;
#X obj 405 180 r \$0ms;
#X connect 0 0 15 0;
#X connect 1 0 10 0;
#X connect 2 0 12 1;
#X connect 3 0 2 0;
#X connect 4 0 3 0;
#X connect 5 0 18 0;
#X connect 5 1 17 0;
#X connect 5 2 3 0;
#X connect 5 3 4 0;
#X connect 5 3 7 0;
#X connect 6 0 1 2;
#X connect 7 0 12 1;
#X connect 8 0 5 0;
#X connect 8 1 14 0;
#X connect 10 0 9 0;
#X connect 11 0 13 0;
#X connect 12 0 1 0;
#X connect 13 0 12 0;
#X connect 14 0 10 2;
#X connect 15 0 16 0;
#X connect 15 1 8 0;
#X connect 16 0 2 0;
#X connect 16 1 4 0;
#X connect 17 0 6 0;
#X connect 18 0 19 0;
#X connect 19 0 6 0;
#X connect 20 0 18 1;
#X restore 187 260 pd lineScrolling;
#N canvas 113 396 831 557 lineScrolling 0;
#X obj 304 -1 inlet;
#X obj 103 432 translateXYZ;
#X msg 482 349 0;
#X obj 583 297 delay 500;
#X msg 573 167 stop;
#X obj 249 157 t b b b b;
#X obj 338 315 line;
#X msg 248 340 1;
#X obj 357 105 t b f;
#X obj 120 529 rectangle;
#X obj 113 474 scaleXYZ;
#X obj 56 31 inlet GEMLIST;
#X obj 113 342 spigot;
#X obj 52 98 separator;
#X obj 312 393 / 127;
#X obj 304 32 sel 0;
#X obj 490 109 t b b;
#X msg 221 242 -1 0;
#X obj 313 220 f 500;
#X msg 321 266 4 \$1;
#X obj 405 180 r \$0ms;
#X connect 0 0 15 0;
#X connect 1 0 10 0;
#X connect 2 0 12 1;
#X connect 3 0 2 0;
#X connect 4 0 3 0;
#X connect 5 0 18 0;
#X connect 5 1 17 0;
#X connect 5 2 3 0;
#X connect 5 3 4 0;
#X connect 5 3 7 0;
#X connect 6 0 1 2;
#X connect 7 0 12 1;
#X connect 8 0 5 0;
#X connect 8 1 14 0;
#X connect 10 0 9 0;
#X connect 11 0 13 0;
#X connect 12 0 1 0;
#X connect 13 0 12 0;
#X connect 14 0 10 2;
#X connect 15 0 16 0;
#X connect 15 1 8 0;
#X connect 16 0 2 0;
#X connect 16 1 4 0;
#X connect 17 0 6 0;
#X connect 18 0 19 0;
#X connect 19 0 6 0;
#X connect 20 0 18 1;
#X restore 315 262 pd lineScrolling;
#N canvas 113 396 831 557 lineScrolling 0;
#X obj 304 -1 inlet;
#X obj 103 432 translateXYZ;
#X msg 482 349 0;
#X obj 583 297 delay 500;
#X msg 573 167 stop;
#X obj 249 157 t b b b b;
#X obj 338 315 line;
#X msg 248 340 1;
#X obj 357 105 t b f;
#X obj 120 529 rectangle;
#X obj 113 474 scaleXYZ;
#X obj 56 31 inlet GEMLIST;
#X obj 113 342 spigot;
#X obj 52 98 separator;
#X obj 312 393 / 127;
#X obj 304 32 sel 0;
#X obj 490 109 t b b;
#X msg 221 242 -1 0;
#X obj 313 220 f 500;
#X msg 321 266 4 \$1;
#X obj 405 180 r \$0ms;
#X connect 0 0 15 0;
#X connect 1 0 10 0;
#X connect 2 0 12 1;
#X connect 3 0 2 0;
#X connect 4 0 3 0;
#X connect 5 0 18 0;
#X connect 5 1 17 0;
#X connect 5 2 3 0;
#X connect 5 3 4 0;
#X connect 5 3 7 0;
#X connect 6 0 1 2;
#X connect 7 0 12 1;
#X connect 8 0 5 0;
#X connect 8 1 14 0;
#X connect 10 0 9 0;
#X connect 11 0 13 0;
#X connect 12 0 1 0;
#X connect 13 0 12 0;
#X connect 14 0 10 2;
#X connect 15 0 16 0;
#X connect 15 1 8 0;
#X connect 16 0 2 0;
#X connect 16 1 4 0;
#X connect 17 0 6 0;
#X connect 18 0 19 0;
#X connect 19 0 6 0;
#X connect 20 0 18 1;
#X restore 464 261 pd lineScrolling;
#X obj 314 99 count.modulo 4;
#X connect 0 0 4 0;
#X connect 2 0 3 0;
#X connect 3 0 1 0;
#X connect 3 1 6 0;
#X connect 3 2 7 0;
#X connect 3 3 8 0;
#X connect 4 0 5 0;
#X connect 4 1 9 0;
#X connect 5 0 1 1;
#X connect 5 1 6 1;
#X connect 5 2 7 1;
#X connect 5 3 8 1;
#X connect 9 0 5 1;
#X restore 62 254 pd tvestroy.line.scrolling;
#N canvas 1214 218 684 335 tvestroy.line.scrolling.slow 0;
#N canvas 1217 145 831 557 lineScrolling 0;
#X obj 304 -1 inlet;
#X obj 103 432 translateXYZ;
#X msg 482 349 0;
#X obj 583 297 delay 500;
#X msg 573 167 stop;
#X obj 249 157 t b b b b;
#X obj 338 315 line;
#X msg 248 340 1;
#X obj 357 105 t b f;
#X obj 120 529 rectangle;
#X obj 113 474 scaleXYZ;
#X obj 56 31 inlet GEMLIST;
#X obj 113 342 spigot;
#X obj 52 98 separator;
#X obj 312 393 / 127;
#X obj 304 32 sel 0;
#X obj 490 109 t b b;
#X msg 221 242 -1 0;
#X obj 313 220 f 500;
#X msg 321 266 4 \$1;
#X obj 405 180 r \$0ms;
#X obj 394 240 * 2;
#X obj 85 168 gems.fit.scale fill;
#X connect 0 0 15 0;
#X connect 1 0 10 0;
#X connect 2 0 12 1;
#X connect 3 0 2 0;
#X connect 4 0 3 0;
#X connect 5 0 18 0;
#X connect 5 1 17 0;
#X connect 5 2 3 0;
#X connect 5 3 4 0;
#X connect 5 3 7 0;
#X connect 6 0 1 2;
#X connect 7 0 12 1;
#X connect 8 0 5 0;
#X connect 8 1 14 0;
#X connect 10 0 9 0;
#X connect 11 0 13 0;
#X connect 12 0 1 0;
#X connect 13 0 22 0;
#X connect 14 0 10 2;
#X connect 15 0 16 0;
#X connect 15 1 8 0;
#X connect 16 0 2 0;
#X connect 16 1 4 0;
#X connect 17 0 6 0;
#X connect 18 0 19 0;
#X connect 19 0 6 0;
#X connect 20 0 21 0;
#X connect 21 0 18 1;
#X connect 22 0 12 0;
#X restore 62 260 pd lineScrolling;
#X obj 62 83 t a a a a;
#X obj 257 68 t a b;
#X obj 240 138 demultiplex 0 1 2 3;
#N canvas 113 211 831 557 lineScrolling 0;
#X obj 304 -1 inlet;
#X obj 103 432 translateXYZ;
#X msg 482 349 0;
#X obj 583 297 delay 500;
#X msg 573 167 stop;
#X obj 249 157 t b b b b;
#X obj 338 315 line;
#X msg 248 340 1;
#X obj 357 105 t b f;
#X obj 120 529 rectangle;
#X obj 113 474 scaleXYZ;
#X obj 56 31 inlet GEMLIST;
#X obj 113 342 spigot;
#X obj 52 98 separator;
#X obj 312 393 / 127;
#X obj 304 32 sel 0;
#X obj 490 109 t b b;
#X msg 221 242 -1 0;
#X obj 313 220 f 500;
#X msg 321 266 4 \$1;
#X obj 405 180 r \$0ms;
#X obj 385 230 * 2;
#X connect 0 0 15 0;
#X connect 1 0 10 0;
#X connect 2 0 12 1;
#X connect 3 0 2 0;
#X connect 4 0 3 0;
#X connect 5 0 18 0;
#X connect 5 1 17 0;
#X connect 5 2 3 0;
#X connect 5 3 4 0;
#X connect 5 3 7 0;
#X connect 6 0 1 2;
#X connect 7 0 12 1;
#X connect 8 0 5 0;
#X connect 8 1 14 0;
#X connect 10 0 9 0;
#X connect 11 0 13 0;
#X connect 12 0 1 0;
#X connect 13 0 12 0;
#X connect 14 0 10 2;
#X connect 15 0 16 0;
#X connect 15 1 8 0;
#X connect 16 0 2 0;
#X connect 16 1 4 0;
#X connect 17 0 6 0;
#X connect 18 0 19 0;
#X connect 19 0 6 0;
#X connect 20 0 21 0;
#X connect 21 0 18 1;
#X restore 187 260 pd lineScrolling;
#N canvas 113 211 831 557 lineScrolling 0;
#X obj 304 -1 inlet;
#X obj 103 432 translateXYZ;
#X msg 482 349 0;
#X obj 583 297 delay 500;
#X msg 573 167 stop;
#X obj 249 157 t b b b b;
#X obj 338 315 line;
#X msg 248 340 1;
#X obj 357 105 t b f;
#X obj 120 529 rectangle;
#X obj 113 474 scaleXYZ;
#X obj 56 31 inlet GEMLIST;
#X obj 113 342 spigot;
#X obj 52 98 separator;
#X obj 312 393 / 127;
#X obj 304 32 sel 0;
#X obj 490 109 t b b;
#X msg 221 242 -1 0;
#X obj 313 220 f 500;
#X msg 321 266 4 \$1;
#X obj 405 180 r \$0ms;
#X obj 381 238 * 2;
#X connect 0 0 15 0;
#X connect 1 0 10 0;
#X connect 2 0 12 1;
#X connect 3 0 2 0;
#X connect 4 0 3 0;
#X connect 5 0 18 0;
#X connect 5 1 17 0;
#X connect 5 2 3 0;
#X connect 5 3 4 0;
#X connect 5 3 7 0;
#X connect 6 0 1 2;
#X connect 7 0 12 1;
#X connect 8 0 5 0;
#X connect 8 1 14 0;
#X connect 10 0 9 0;
#X connect 11 0 13 0;
#X connect 12 0 1 0;
#X connect 13 0 12 0;
#X connect 14 0 10 2;
#X connect 15 0 16 0;
#X connect 15 1 8 0;
#X connect 16 0 2 0;
#X connect 16 1 4 0;
#X connect 17 0 6 0;
#X connect 18 0 19 0;
#X connect 19 0 6 0;
#X connect 20 0 21 0;
#X connect 21 0 18 1;
#X restore 315 262 pd lineScrolling;
#N canvas 113 211 831 557 lineScrolling 0;
#X obj 304 -1 inlet;
#X obj 103 432 translateXYZ;
#X msg 482 349 0;
#X obj 583 297 delay 500;
#X msg 573 167 stop;
#X obj 249 157 t b b b b;
#X obj 338 315 line;
#X msg 248 340 1;
#X obj 357 105 t b f;
#X obj 120 529 rectangle;
#X obj 113 474 scaleXYZ;
#X obj 56 31 inlet GEMLIST;
#X obj 113 342 spigot;
#X obj 52 98 separator;
#X obj 312 393 / 127;
#X obj 304 32 sel 0;
#X obj 490 109 t b b;
#X msg 221 242 -1 0;
#X obj 313 220 f 500;
#X msg 321 266 4 \$1;
#X obj 405 180 r \$0ms;
#X obj 392 241 * 2;
#X connect 0 0 15 0;
#X connect 1 0 10 0;
#X connect 2 0 12 1;
#X connect 3 0 2 0;
#X connect 4 0 3 0;
#X connect 5 0 18 0;
#X connect 5 1 17 0;
#X connect 5 2 3 0;
#X connect 5 3 4 0;
#X connect 5 3 7 0;
#X connect 6 0 1 2;
#X connect 7 0 12 1;
#X connect 8 0 5 0;
#X connect 8 1 14 0;
#X connect 10 0 9 0;
#X connect 11 0 13 0;
#X connect 12 0 1 0;
#X connect 13 0 12 0;
#X connect 14 0 10 2;
#X connect 15 0 16 0;
#X connect 15 1 8 0;
#X connect 16 0 2 0;
#X connect 16 1 4 0;
#X connect 17 0 6 0;
#X connect 18 0 19 0;
#X connect 19 0 6 0;
#X connect 20 0 21 0;
#X connect 21 0 18 1;
#X restore 464 261 pd lineScrolling;
#X obj 314 99 count.modulo 4;
#X obj 250 26 inlet velocity;
#X obj 58 19 inlet gemhead;
#X connect 1 0 0 0;
#X connect 1 1 4 0;
#X connect 1 2 5 0;
#X connect 1 3 6 0;
#X connect 2 0 3 0;
#X connect 2 1 7 0;
#X connect 3 0 0 1;
#X connect 3 1 4 1;
#X connect 3 2 5 1;
#X connect 3 3 6 1;
#X connect 7 0 3 1;
#X connect 8 0 2 0;
#X connect 9 0 1 0;
#X restore 63 223 pd tvestroy.line.scrolling.slow;
#N canvas 0 0 863 607 newColorBuildUp 0;
#N canvas 304 216 575 348 noise 0;
#X obj 128 58 inlet;
#X obj 145 263 outlet;
#X floatatom 448 101 5 0 0 0 - - -;
#X obj 393 197 *;
#X floatatom 388 234 5 0 0 0 - - -;
#X msg 391 159 32 32;
#X obj 342 91 lop~ 200;
#X obj 242 16 inlet~;
#X msg 454 48 4096;
#X msg 321 158 64 64;
#X obj 149 98 hip~ 4000;
#X obj 344 42 block~ 1024;
#X obj 144 200 pix_sig2pix~ 32 32;
#X obj 225 101 bp~ 3000 4;
#X obj 275 147 *~ 4;
#X connect 0 0 12 0;
#X connect 3 0 4 0;
#X connect 5 0 3 0;
#X connect 6 0 12 0;
#X connect 7 0 6 0;
#X connect 7 0 10 0;
#X connect 7 0 12 3;
#X connect 7 0 13 0;
#X connect 10 0 14 0;
#X connect 12 0 1 0;
#X connect 13 0 12 1;
#X connect 14 0 12 2;
#X restore 56 284 pd noise;
#X obj 56 344 pix_texture;
#X msg 161 322 quality \$1;
#X obj 165 291 tgl 15 0 empty empty empty 0 -6 0 8 -262144 -1 -1 0
1;
#X obj 111 395 alpha;
#N canvas 170 120 768 564 pw 0;
#X floatatom 291 199 5 0 0 0 - - -;
#X text 147 82 Input signal 1;
#X text 361 228 Input signal 2;
#X text 92 235 Output signal;
#X obj 185 381 outlet~;
#X text 183 5 0 to 4 \, 819;
#X obj 288 229 osc~ 819;
#X obj 275 379 *~;
#X obj 318 6 inlet;
#X msg 204 37 0;
#X obj 348 126 line~;
#X obj 514 247 line~;
#X obj 531 13 inlet;
#X msg 347 93 0 \, 1 10000;
#X obj 83 120 osc~ 0.01;
#X msg 364 385 1379;
#X msg 535 49 0;
#X obj 653 33 inlet;
#X obj 522 198 pack f 250;
#X obj 176 338 ./depracated/synth.wide.modulation~;
#X connect 0 0 6 0;
#X connect 6 0 19 1;
#X connect 7 0 4 0;
#X connect 8 0 13 0;
#X connect 8 0 9 0;
#X connect 8 0 0 0;
#X connect 9 0 14 1;
#X connect 10 0 7 1;
#X connect 11 0 14 0;
#X connect 12 0 16 0;
#X connect 13 0 10 0;
#X connect 14 0 19 0;
#X connect 15 0 0 0;
#X connect 16 0 10 0;
#X connect 17 0 18 0;
#X connect 18 0 11 0;
#X connect 19 0 7 0;
#X restore 156 181 pd pw;
#X obj 97 435 translateXYZ 0 0 0;
#X obj 254 219 loadbang;
#X msg 251 250 0;
#X obj 129 558 rectangle;
#X obj 232 11 inlet;
#X obj 237 46 midi.note.split;
#X obj 136 102 scale.linear 0 127 819 1379;
#X obj 200 132 scale.linear 0 127 0 4;
#X obj 147 535 rotateXYZ;
#X floatatom 222 499 5 0 0 0 - - -;
#X obj 419 31 r PANIC;
#X msg 420 56 0;
#X obj 26 17 inlet;
#X connect 0 0 1 0;
#X connect 1 0 4 0;
#X connect 2 0 1 0;
#X connect 3 0 2 0;
#X connect 4 0 6 0;
#X connect 5 0 0 1;
#X connect 6 0 14 0;
#X connect 7 0 8 0;
#X connect 8 0 3 0;
#X connect 10 0 11 0;
#X connect 11 0 13 0;
#X connect 11 1 12 0;
#X connect 11 2 5 1;
#X connect 12 0 5 0;
#X connect 13 0 5 2;
#X connect 14 0 9 0;
#X connect 15 0 14 3;
#X connect 16 0 17 0;
#X connect 17 0 5 1;
#X connect 18 0 0 0;
#X restore 298 262 pd newColorBuildUp;
#X text 62 200 Where to put these?;
