#N canvas 103 70 814 592 10;
#X obj 30 297 scaleXYZ;
#N canvas 1048 202 991 349 funsquare 0;
#X obj 484 278 translateXYZ 1 0 0;
#X obj 343 279 translateXYZ -1 0 0;
#X obj 55 278 translateXYZ 0 1 0;
#X obj 199 277 translateXYZ 0 -1 0;
#X obj 102 151 separator;
#X obj 189 149 separator;
#X obj 304 146 separator;
#X obj 430 153 separator;
#X obj 435 -15 inlet;
#X obj 575 10 inlet;
#X obj 208 18 inlet;
#X obj 56 330 rectangle 1 1;
#X obj 199 325 rectangle 1 1;
#X obj 362 320 rectangle 1 1;
#X obj 534 317 rectangle 1 1;
#X obj 222 80 scaleXYZ;
#X obj 428 40 * -1;
#X obj 562 84 * -1;
#X obj 804 17 inlet;
#X obj 683 -20 inlet line_width;
#X obj 796 125 + 1;
#X obj 802 201 /;
#X floatatom 796 240 5 0 0 0 - - -;
#X floatatom 830 148 5 0 0 0 - - -;
#X msg 773 166 1 \$1;
#X obj 708 43 f;
#X obj 794 50 f;
#X connect 0 0 14 0;
#X connect 1 0 13 0;
#X connect 2 0 11 0;
#X connect 3 0 12 0;
#X connect 4 0 2 0;
#X connect 5 0 3 0;
#X connect 6 0 1 0;
#X connect 7 0 0 0;
#X connect 8 0 16 0;
#X connect 8 0 0 1;
#X connect 9 0 2 2;
#X connect 9 0 17 0;
#X connect 10 0 15 0;
#X connect 15 0 4 0;
#X connect 15 0 5 0;
#X connect 15 0 6 0;
#X connect 15 0 7 0;
#X connect 16 0 1 1;
#X connect 17 0 3 2;
#X connect 19 0 25 0;
#X connect 20 0 24 0;
#X connect 20 0 23 0;
#X connect 20 0 26 0;
#X connect 21 0 22 0;
#X connect 21 0 15 1;
#X connect 21 0 15 2;
#X connect 24 0 21 0;
#X connect 25 0 11 2;
#X connect 25 0 12 2;
#X connect 25 0 13 1;
#X connect 25 0 14 1;
#X connect 25 0 20 0;
#X connect 26 0 14 2;
#X connect 26 0 13 2;
#X connect 26 0 12 1;
#X connect 26 0 11 1;
#X restore 74 504 pd funsquare;
#X floatatom 392 329 5 0 0 0 - - -;
#X floatatom 449 357 5 0 0 0 - - -;
#X floatatom 465 378 5 0 0 0 - - -;
#X text 503 377 line width;
#X obj 657 126 loadbang;
#X msg 481 191 1;
#X msg 518 193 1;
#X msg 562 191 0.4;
#X msg 459 125 1;
#X msg 495 121 19;
#X obj 430 -27 inlet;
#X obj 201 72 line;
#X obj 147 65 > 0;
#X obj 342 139 t b a;
#X obj 44 111 spigot;
#X obj -21 -13 inlet gemhead;
#X obj 28 178 separator;
#X obj 434 9 sel 0;
#X msg 217 45 1 \, 0 \$1;
#X obj 215 11 ./interval 0.5;
#X msg 396 31 0;
#X msg 461 -14 \$1;
#X obj 174 122 * 1.5;
#X obj 163 152 ../pdmtl/flow.smooth 1 0.1;
#X obj 260 222 ../pdmtl/scale.linear 0 127 0 1;
#X connect 0 0 1 0;
#X connect 2 0 1 1;
#X connect 3 0 1 2;
#X connect 4 0 1 3;
#X connect 6 0 7 0;
#X connect 6 0 8 0;
#X connect 6 0 9 0;
#X connect 7 0 2 0;
#X connect 8 0 3 0;
#X connect 9 0 4 0;
#X connect 10 0 2 0;
#X connect 11 0 2 0;
#X connect 12 0 23 0;
#X connect 13 0 14 0;
#X connect 13 0 24 0;
#X connect 14 0 16 1;
#X connect 15 0 21 0;
#X connect 15 1 26 0;
#X connect 16 0 18 0;
#X connect 17 0 16 0;
#X connect 18 0 0 0;
#X connect 19 0 22 0;
#X connect 19 1 15 0;
#X connect 20 0 13 0;
#X connect 21 0 20 0;
#X connect 22 0 13 0;
#X connect 23 0 19 0;
#X connect 24 0 25 0;
#X connect 25 0 0 1;
#X connect 25 0 0 2;
#X connect 25 0 0 3;
#X connect 26 0 4 0;
