#N canvas 352 258 837 741 10;
#X obj 100 442 square;
#X obj 160 -200 inlet;
#X obj 85 -50 ./ctl \$1;
#X obj 98 316 ../pdmtl/gems.fit.scale fill;
#X obj 324 273 pix_image;
#X obj 369 170 loadbang;
#X obj 162 356 pix_texture;
#X obj 474 291 pix_image;
#X obj 427 334 ../pdmtl/gems.fit.scale fill;
#X obj 491 374 pix_texture;
#X obj 493 429 square;
#X obj 145 206 zexy/demultiplex 0 1;
#X obj 215 149 tgl 15 0 empty empty empty 17 7 0 10 -262144 -1 -1 1
1;
#X msg 369 205 open bj1.jpg;
#X msg 518 223 open bj2.jpg;
#X obj 234 43 f;
#X obj 236 73 + 1;
#X msg 113 -8 0;
#X obj 86 167 t b a;
#X obj 120 33 b;
#X obj 236 99 sel 1;
#X connect 1 0 2 0;
#X connect 2 0 18 0;
#X connect 2 1 17 0;
#X connect 2 1 19 0;
#X connect 3 0 6 0;
#X connect 4 0 3 0;
#X connect 5 0 13 0;
#X connect 5 0 14 0;
#X connect 6 0 0 0;
#X connect 7 0 8 0;
#X connect 8 0 9 0;
#X connect 9 0 10 0;
#X connect 11 0 4 0;
#X connect 11 1 7 0;
#X connect 12 0 11 1;
#X connect 13 0 4 0;
#X connect 14 0 7 0;
#X connect 15 0 16 0;
#X connect 16 0 15 1;
#X connect 16 0 20 0;
#X connect 17 0 15 1;
#X connect 18 0 15 0;
#X connect 18 1 11 0;
#X connect 19 0 12 0;
#X connect 20 0 2 1;
