#N canvas 362 315 627 363 10;
#X obj 252 28 inlet rate;
#X obj 58 27 inlet gemhead;
#X obj 59 115 t a b;
#X obj 31 281 outlet gemhead;
#X obj 205 288 outlet blink;
#X obj 330 55 ./ctl -1 6;
#X obj 242 96 t b f;
#X obj 275 131 t f f;
#X obj 396 77 / 8;
#X obj 400 102 + 1;
#X floatatom 425 162 5 0 0 0 - - -;
#X obj 401 124 int;
#X obj 453 208 value TV4interval;
#X obj 355 208 expr 1000/60;
#X obj 465 21 inlet restart;
#X obj 469 50 b;
#X obj 277 248 print;
#X obj 194 238 sel 0;
#X obj 184 189 ../pdmtl/count.modulo;
#X connect 0 0 6 0;
#X connect 1 0 2 0;
#X connect 2 0 3 0;
#X connect 2 1 18 0;
#X connect 5 1 8 0;
#X connect 6 1 7 0;
#X connect 7 0 18 2;
#X connect 8 0 9 0;
#X connect 9 0 11 0;
#X connect 11 0 7 0;
#X connect 11 0 10 0;
#X connect 14 0 15 0;
#X connect 15 0 18 1;
#X connect 17 0 4 0;
#X connect 18 0 17 0;
