#N canvas 0 22 761 601 10;
#X msg 162 169 1;
#X msg 74 198 0;
#X obj 173 436 translateXYZ 0 -0.2 0;
#X obj 317 373 * -1;
#X obj 590 399 line;
#X obj 3 5 inlet gemhead;
#X obj 38 240 spigot;
#X obj 176 463 rectangle 1 0.1;
#X obj 40 523 rectangle 1 0.1;
#X obj 60 376 t a a;
#X obj 115 386 separator;
#X obj 25 425 separator;
#X obj 38 498 translateXYZ 0 0.2 0;
#X floatatom 471 350 5 0 0 0 - - -;
#X obj 187 51 sel 0;
#X obj 392 398 * 0.5;
#X obj 555 325 / 127;
#X obj 301 254 / 127;
#X obj 298 277 + 0.02;
#X obj 586 362 pack f 125;
#X obj 319 342 line;
#X obj 317 318 pack f 75;
#X obj 251 80 * 0.5;
#X obj 443 165 * 0.25;
#X obj 387 161 * 0.125;
#X obj 192 251 delay 100;
#X obj 349 108 / 4;
#X obj 380 32 ./interval;
#X obj 238 115 t b f b;
#X obj 381 66 f;
#X obj 189 15 inlet velocity;
#X obj 61 304 ../pdmtl/gems.fit.scale fill;
#X connect 0 0 6 1;
#X connect 1 0 6 1;
#X connect 2 0 7 0;
#X connect 3 0 2 2;
#X connect 3 0 13 0;
#X connect 4 0 7 2;
#X connect 4 0 8 2;
#X connect 5 0 6 0;
#X connect 6 0 31 0;
#X connect 9 0 11 0;
#X connect 9 1 10 0;
#X connect 10 0 2 0;
#X connect 11 0 12 0;
#X connect 12 0 8 0;
#X connect 14 1 22 0;
#X connect 16 0 19 0;
#X connect 17 0 18 0;
#X connect 18 0 21 0;
#X connect 19 0 4 0;
#X connect 20 0 3 0;
#X connect 20 0 12 2;
#X connect 21 0 20 0;
#X connect 22 0 28 0;
#X connect 23 0 19 1;
#X connect 24 0 21 1;
#X connect 25 0 1 0;
#X connect 26 0 25 1;
#X connect 27 0 29 0;
#X connect 28 0 0 0;
#X connect 28 0 25 0;
#X connect 28 1 16 0;
#X connect 28 1 17 0;
#X connect 28 2 27 0;
#X connect 29 0 23 0;
#X connect 29 0 24 0;
#X connect 29 0 26 0;
#X connect 30 0 14 0;
#X connect 31 0 9 0;
