#N canvas 0 22 788 648 10;
#N canvas 304 216 575 348 noise 0;
#X obj 128 58 inlet;
#X obj 145 263 outlet;
#X floatatom 448 101 5 0 0 0 - - -;
#X obj 393 197 *;
#X floatatom 388 234 5 0 0 0 - - -;
#X msg 391 159 32 32;
#X obj 342 91 lop~ 200;
#X obj 242 16 inlet~;
#X msg 454 48 4096;
#X msg 321 158 64 64;
#X obj 149 98 hip~ 4000;
#X obj 344 42 block~ 1024;
#X obj 144 200 pix_sig2pix~ 32 32;
#X obj 225 101 bp~ 3000 4;
#X obj 275 147 *~ 4;
#X connect 0 0 12 0;
#X connect 3 0 4 0;
#X connect 5 0 3 0;
#X connect 6 0 12 0;
#X connect 7 0 6 0;
#X connect 7 0 10 0;
#X connect 7 0 12 3;
#X connect 7 0 13 0;
#X connect 10 0 14 0;
#X connect 12 0 1 0;
#X connect 13 0 12 1;
#X connect 14 0 12 2;
#X restore 56 284 pd noise;
#X obj 56 344 pix_texture;
#X msg 161 322 quality \$1;
#X obj 165 291 tgl 15 0 empty empty empty 0 -6 0 8 -262144 -1 -1 0
1;
#X obj 111 395 alpha;
#N canvas 170 120 768 564 pw 0;
#X floatatom 291 199 5 0 0 0 - - -;
#X text 147 82 Input signal 1;
#X text 361 228 Input signal 2;
#X text 92 235 Output signal;
#X obj 185 381 outlet~;
#X text 183 5 0 to 4 \, 819;
#X obj 288 229 osc~ 819;
#X obj 275 379 *~;
#X obj 318 6 inlet;
#X msg 204 37 0;
#X obj 348 126 line~;
#X obj 514 247 line~;
#X obj 531 13 inlet;
#X msg 347 93 0 \, 1 10000;
#X obj 83 120 osc~ 0.01;
#X msg 364 385 1379;
#X msg 535 49 0;
#X obj 653 33 inlet;
#X obj 522 198 pack f 250;
#X obj 176 338 ./depracated/synth.wide.modulation~;
#X connect 0 0 6 0;
#X connect 6 0 19 1;
#X connect 7 0 4 0;
#X connect 8 0 13 0;
#X connect 8 0 9 0;
#X connect 8 0 0 0;
#X connect 9 0 14 1;
#X connect 10 0 7 1;
#X connect 11 0 14 0;
#X connect 12 0 16 0;
#X connect 13 0 10 0;
#X connect 14 0 19 0;
#X connect 15 0 0 0;
#X connect 16 0 10 0;
#X connect 17 0 18 0;
#X connect 18 0 11 0;
#X connect 19 0 7 0;
#X restore 290 159 pd pw;
#X obj 97 435 translateXYZ 0 0 0;
#X obj 357 215 loadbang;
#X msg 354 246 0;
#X obj 129 558 rectangle;
#X obj 147 535 rotateXYZ;
#X floatatom 222 499 5 0 0 0 - - -;
#X obj 26 17 inlet;
#X obj 57 78 ./ctl \$1 70;
#X obj 237 46 ../pdmtl/midi.note.split;
#X obj 393 111 ../pdmtl/scale.linear 0 127 0 4;
#X obj 136 102 ../pdmtl/scale.linear 0 127 819 1379;
#X obj 98 168 ../pdmtl/gems.fit.scale fill;
#X connect 0 0 1 0;
#X connect 1 0 4 0;
#X connect 2 0 1 0;
#X connect 3 0 2 0;
#X connect 4 0 6 0;
#X connect 5 0 0 1;
#X connect 6 0 10 0;
#X connect 7 0 8 0;
#X connect 8 0 3 0;
#X connect 10 0 9 0;
#X connect 11 0 10 3;
#X connect 12 0 13 0;
#X connect 13 0 17 0;
#X connect 13 1 14 0;
#X connect 14 0 15 0;
#X connect 14 1 16 0;
#X connect 14 2 5 1;
#X connect 15 0 5 2;
#X connect 16 0 5 0;
#X connect 17 0 0 0;
