#N canvas 263 139 965 651 10;
#X obj 189 408 square;
#X obj 193 370 colorRGB;
#X obj 266 332 tgl 15 0 empty empty empty 17 7 0 10 -262144 -1 -1 0
1;
#X obj 294 333 tgl 15 0 empty empty empty 17 7 0 10 -262144 -1 -1 0
1;
#X obj 324 336 tgl 15 0 empty empty empty 17 7 0 10 -262144 -1 -1 0
1;
#X obj 160 -63 t a b;
#X floatatom 261 -53 5 0 0 0 - - -;
#X obj 666 9 sel 0;
#X obj 150 -210 inlet;
#X obj 181 -178 ./ctl \$1;
#X obj 468 -175 t b f;
#X obj 274 -142 ../pdmtl/midi.note.split;
#X obj 665 -19 ../pdmtl/count.modulo 2;
#X obj 529 231 ../pdmtl/count.modulo 3;
#X obj 170 -8 ../pdmtl/gems.fit.scale fill;
#X obj 531 268 sel 0;
#X obj 480 210 ../pdmtl/count.modulo 3;
#X obj 482 247 sel 0;
#X obj 417 192 ../pdmtl/count.modulo 3;
#X obj 419 229 sel 0;
#X obj 422 -1 >> 2;
#X obj 465 50 & 127;
#X obj 536 52 & 127;
#X obj 383 41 >> 2;
#X obj 426 92 & 127;
#X connect 1 0 0 0;
#X connect 2 0 1 1;
#X connect 3 0 1 2;
#X connect 4 0 1 3;
#X connect 5 0 14 0;
#X connect 5 1 12 0;
#X connect 6 0 14 1;
#X connect 7 0 13 0;
#X connect 7 0 16 0;
#X connect 7 0 18 0;
#X connect 8 0 9 0;
#X connect 9 0 5 0;
#X connect 9 1 11 0;
#X connect 10 0 12 1;
#X connect 10 1 12 2;
#X connect 11 0 10 0;
#X connect 11 1 20 0;
#X connect 11 1 22 0;
#X connect 11 2 9 1;
#X connect 12 0 7 0;
#X connect 13 0 15 0;
#X connect 14 0 1 0;
#X connect 15 0 4 0;
#X connect 16 0 17 0;
#X connect 17 0 3 0;
#X connect 18 0 19 0;
#X connect 19 0 2 0;
#X connect 20 0 21 0;
#X connect 20 0 23 0;
#X connect 21 0 16 2;
#X connect 22 0 13 2;
#X connect 23 0 24 0;
#X connect 24 0 18 2;
