#N canvas 966 204 714 471 10;
#N canvas 687 52 993 659 newSigColor 0;
#N canvas 88 288 571 344 noise 0;
#X obj 128 58 inlet;
#X obj 145 263 outlet;
#X floatatom 448 101 5 0 0 0 - - -;
#X obj 393 197 *;
#X floatatom 388 234 5 0 0 0 - - -;
#X msg 391 159 32 32;
#X obj 342 91 lop~ 200;
#X obj 242 16 inlet~;
#X msg 454 48 4096;
#X msg 321 158 64 64;
#X obj 149 98 hip~ 4000;
#X obj 344 42 block~ 1024;
#X obj 144 200 pix_sig2pix~ 32 32;
#X obj 225 101 bp~ 3000 4;
#X obj 275 147 *~ 4;
#X connect 0 0 12 0;
#X connect 3 0 4 0;
#X connect 5 0 3 0;
#X connect 6 0 12 0;
#X connect 7 0 6 0;
#X connect 7 0 10 0;
#X connect 7 0 12 3;
#X connect 7 0 13 0;
#X connect 10 0 14 0;
#X connect 12 0 1 0;
#X connect 13 0 12 1;
#X connect 14 0 12 2;
#X restore 239 344 pd noise;
#X obj 239 404 pix_texture;
#X msg 344 382 quality \$1;
#X obj 348 351 tgl 15 0 empty empty empty 0 -6 0 8 -262144 -1 -1 0
1;
#X obj 294 455 alpha;
#X msg 394 205 100;
#X msg 448 200 500;
#X msg 497 213 800;
#X msg 322 214 50;
#X msg 265 217 60;
#X msg 495 245 1000;
#X floatatom 525 125 5 0 0 0 - - -;
#X obj 438 172 r P1;
#X obj 355 181 r P3;
#X obj 299 183 r P4;
#X obj 280 495 translateXYZ 0 0 0;
#X obj 382 131 * 4;
#X msg 328 53 25;
#X msg 368 51 4;
#X msg 404 53 1;
#X obj 435 284 loadbang;
#X msg 432 315 0;
#X obj 213 10 inlet;
#X obj 330 578 rectangle 1 1;
#X obj 289 310 ./depracated/fx.dist~;
#X obj 389 244 ./depracated/synth.bell~;
#X obj 25 23 inlet;
#X obj 636 564 outlet;
#X obj 144 118 ../pdmtl/gems.fit.scale fill;
#X obj 461 55 ../pdmtl/midi.note.split;
#X connect 0 0 1 0;
#X connect 1 0 4 0;
#X connect 2 0 1 0;
#X connect 3 0 2 0;
#X connect 4 0 15 0;
#X connect 5 0 25 0;
#X connect 6 0 25 0;
#X connect 7 0 25 0;
#X connect 8 0 25 0;
#X connect 9 0 25 0;
#X connect 10 0 25 0;
#X connect 11 0 24 1;
#X connect 11 0 24 2;
#X connect 12 0 5 0;
#X connect 13 0 8 0;
#X connect 14 0 9 0;
#X connect 15 0 23 0;
#X connect 16 0 25 0;
#X connect 17 0 16 0;
#X connect 18 0 16 0;
#X connect 19 0 16 0;
#X connect 20 0 21 0;
#X connect 21 0 3 0;
#X connect 22 0 29 0;
#X connect 24 0 0 1;
#X connect 25 0 24 0;
#X connect 26 0 28 0;
#X connect 28 0 0 0;
#X connect 29 0 16 0;
#X connect 29 1 11 0;
#X connect 29 2 27 0;
#X restore 195 189 pd newSigColor;
#X obj 214 38 inlet;
#X obj 238 89 ./ctl \$1;
#X connect 0 0 2 1;
#X connect 1 0 2 0;
#X connect 2 0 0 0;
#X connect 2 1 0 1;
