#N canvas 652 234 808 553 10;
#X obj 174 266 square;
#X obj 174 149 colorRGB;
#X obj 284 245 tgl 15 0 empty empty empty 17 7 0 10 -262144 -1 -1 1
1;
#X obj 170 -53 t a b;
#X floatatom 271 -43 5 0 0 0 - - -;
#X obj 492 -87 sel 0;
#X obj 160 -200 inlet;
#X obj 191 -168 ./ctl \$1;
#X obj 478 -165 t b f;
#X obj 284 -132 ../pdmtl/midi.note.split;
#X obj 491 -115 ../pdmtl/count.modulo 2;
#X obj 180 2 ../pdmtl/gems.fit.scale fill;
#X obj 327 197 sel 0;
#X obj 336 173 ../pdmtl/count.modulo 1;
#X connect 1 0 0 0;
#X connect 2 0 1 1;
#X connect 3 0 11 0;
#X connect 3 1 10 0;
#X connect 4 0 11 1;
#X connect 5 0 13 0;
#X connect 6 0 7 0;
#X connect 7 0 3 0;
#X connect 7 1 9 0;
#X connect 8 0 10 1;
#X connect 8 1 10 2;
#X connect 9 0 8 0;
#X connect 9 1 13 2;
#X connect 9 2 7 1;
#X connect 10 0 5 0;
#X connect 11 0 1 0;
#X connect 12 0 2 0;
#X connect 13 0 12 0;
