#N canvas 496 350 614 423 10;
#X obj 145 -13 loadbang;
#X obj 160 156 list prepend d;
#X obj 25 116 r PANIC;
#X msg 25 154 0;
#X msg 83 227 1;
#X obj 35 7 inlet test;
#X obj 276 16 inlet stop;
#X obj 147 27 t b b;
#X obj 43 46 t a b b;
#X obj 246 83 s PANIC;
#X obj 24 344 outlet gemhead;
#X obj 256 356 outlet data;
#X obj 421 344 outlet panic;
#X obj 427 244 r PANIC;
#X obj 172 119 f \$1;
#X obj 238 260 t a b;
#X msg 272 280 1;
#X obj 25 282 gemhead \$2;
#X obj 160 205 ../pdmtl/flow.receive;
#X obj 160 180 ../pdmtl/convert.list2symbol _;
#X connect 0 0 7 0;
#X connect 1 0 19 0;
#X connect 2 0 3 0;
#X connect 3 0 17 0;
#X connect 4 0 17 0;
#X connect 5 0 8 0;
#X connect 6 0 3 0;
#X connect 7 0 3 0;
#X connect 7 1 14 0;
#X connect 8 0 11 0;
#X connect 8 1 4 0;
#X connect 8 2 9 0;
#X connect 13 0 12 0;
#X connect 14 0 1 0;
#X connect 15 0 11 0;
#X connect 15 1 16 0;
#X connect 16 0 17 0;
#X connect 17 0 10 0;
#X connect 18 0 15 0;
#X connect 19 0 18 0;
