#N canvas 80 142 994 612 10;
#X obj 116 480 alpha;
#X floatatom 238 231 5 0 0 0 - - -;
#X floatatom 282 221 5 0 0 0 - - -;
#X floatatom 120 198 5 0 0 0 - - -;
#X floatatom 161 235 5 0 0 0 - - -;
#X obj 84 446 rotateXYZ;
#X obj 124 152 snapshot~;
#X obj 54 128 t a b;
#X floatatom 200 237 5 0 0 0 - - -;
#X obj 134 332 scaleXYZ 0.3 0.3 0.46;
#X floatatom 203 348 5 0 0 0 - - -;
#X floatatom 158 73 5 0 0 0 - - -;
#X msg 204 472 draw line \, width 10;
#X obj 291 101 tgl 15 0 empty empty empty 17 7 0 10 -262144 -1 -1 1
1;
#X text 310 27 < on/off;
#X text 312 104 < fill/line;
#X text 335 8 phasor;
#X obj 158 106 phasor~ 8;
#X floatatom 20 374 5 0 0 0 - - -;
#X obj 301 56 bng 15 250 50 0 empty empty empty 17 7 0 10 -262144 -1
-1;
#X obj 359 232 bng 15 250 50 0 empty empty empty 17 7 0 10 -262144
-1 -1;
#X msg 235 78 0;
#X obj 105 504 spigot;
#X obj 147 418 tgl 15 0 empty empty empty 17 7 0 10 -262144 -1 -1 1
1;
#X obj 340 305 sel 0;
#X msg 372 352 1;
#X msg 335 346 0;
#X floatatom 31 284 5 0 0 0 - - -;
#X obj 8 256 ctlin 16;
#X obj 298 77 spigot;
#X obj 336 48 tgl 15 0 empty empty empty 17 7 0 10 -262144 -1 -1 1
1;
#X floatatom 525 464 5 0 0 0 - - -;
#X obj 528 440 * 1;
#X floatatom 227 140 5 0 0 0 - - -;
#X obj 340 -8 inlet;
#X obj 365 67 sel 0;
#X msg 377 91 0;
#X obj 322 180 inlet;
#X obj 214 292 spigot;
#X obj 266 302 sel 0;
#X obj 190 557 cube;
#X msg 286 327 0.3;
#X obj 20 415 line;
#X msg 20 389 \$1 200;
#X floatatom 23 449 5 0 0 0 - - -;
#X text 512 -26 note;
#X obj 696 -2 inlet;
#X floatatom 858 47 5 0 0 0 - - -;
#X floatatom 808 44 5 0 0 0 - - -;
#X obj 418 -4 inlet;
#X floatatom 627 29 5 0 0 0 - - -;
#X floatatom 547 38 5 0 0 0 - - -;
#X obj 454 0 ./ctl \$1;
#X obj 722 45 ./ctl \$2;
#X obj 497 300 ./interval;
#X obj 550 257 bng 15 250 50 0 empty empty empty 17 7 0 10 -262144
-1 -1;
#X obj 745 131 bng 15 250 50 0 empty empty empty 17 7 0 10 -262144
-1 -1;
#X obj 771 134 bng 15 250 50 0 empty empty empty 17 7 0 10 -262144
-1 -1;
#X msg 823 125 1;
#X obj 848 87 sel 2;
#X msg 857 124 0;
#X obj 188 161 loadbang;
#X obj 180 185 f \$3;
#X obj 50 29 ../pdmtl/gems.fit.scale fill;
#X obj 558 -9 ../pdmtl/midi.note.split;
#X obj 755 -6 ../pdmtl/midi.note.split;
#X obj 107 261 ../pdmtl/gems.multi.cube 0 0 0 2;
#X obj 6 319 ../pdmtl/scale.linear 0 127 0 360;
#X obj 502 387 ../pdmtl/convert.ms2freq;
#X obj 189 512 zexy/demultiplex 0 1;
#X obj 209 443 loadbang;
#X obj 333 549 cube;
#X connect 0 0 22 0;
#X connect 1 0 66 3;
#X connect 3 0 9 1;
#X connect 3 0 38 0;
#X connect 4 0 66 1;
#X connect 5 0 0 0;
#X connect 6 0 3 0;
#X connect 7 0 66 0;
#X connect 7 1 6 0;
#X connect 8 0 66 2;
#X connect 9 0 5 0;
#X connect 11 0 17 0;
#X connect 12 0 40 0;
#X connect 13 0 69 1;
#X connect 17 0 6 0;
#X connect 18 0 43 0;
#X connect 19 0 29 0;
#X connect 20 0 21 0;
#X connect 21 0 17 1;
#X connect 22 0 69 0;
#X connect 23 0 22 1;
#X connect 24 0 26 0;
#X connect 24 1 25 0;
#X connect 25 0 23 0;
#X connect 26 0 23 0;
#X connect 28 0 67 0;
#X connect 28 1 27 0;
#X connect 29 0 13 0;
#X connect 30 0 29 1;
#X connect 30 0 35 0;
#X connect 31 0 11 0;
#X connect 32 0 31 0;
#X connect 34 0 30 0;
#X connect 35 0 36 0;
#X connect 36 0 13 0;
#X connect 37 0 38 1;
#X connect 37 0 39 0;
#X connect 38 0 9 2;
#X connect 39 0 41 0;
#X connect 41 0 9 2;
#X connect 42 0 5 1;
#X connect 42 0 44 0;
#X connect 43 0 42 0;
#X connect 46 0 53 0;
#X connect 47 0 56 0;
#X connect 47 0 59 0;
#X connect 48 0 57 0;
#X connect 48 0 4 0;
#X connect 49 0 52 0;
#X connect 50 0 32 1;
#X connect 51 0 24 0;
#X connect 51 0 8 0;
#X connect 51 0 55 0;
#X connect 52 0 19 0;
#X connect 52 0 63 0;
#X connect 52 1 64 0;
#X connect 53 1 65 0;
#X connect 54 0 68 0;
#X connect 55 0 54 0;
#X connect 58 0 30 0;
#X connect 59 0 58 0;
#X connect 59 1 60 0;
#X connect 60 0 30 0;
#X connect 61 0 62 0;
#X connect 62 0 39 0;
#X connect 62 0 38 1;
#X connect 63 0 7 0;
#X connect 64 0 51 0;
#X connect 64 1 50 0;
#X connect 64 2 52 1;
#X connect 65 0 48 0;
#X connect 65 1 47 0;
#X connect 65 2 53 1;
#X connect 66 0 9 0;
#X connect 67 0 18 0;
#X connect 68 0 32 0;
#X connect 69 0 40 0;
#X connect 69 1 71 0;
#X connect 70 0 12 0;
