#N canvas 28 22 1022 687 10;
#X obj 42 30 inlet;
#X obj 283 414 ./snare;
#N canvas 168 194 751 446 bds 0;
#X obj 27 21 inlet;
#X obj 49 86 t a a a a;
#X obj 8 131 separator;
#X obj 73 131 separator;
#X obj 138 130 separator;
#X obj 209 131 separator;
#X obj 326 42 inlet;
#X obj 282 96 poly 4 1;
#X obj 282 124 pack f f f;
#X obj 279 151 route 1 2 3 4;
#X msg 298 74 \$1 \$1;
#X obj 26 237 ./bd;
#X obj 218 236 ./bd;
#X obj 83 237 ./bd;
#X obj 153 237 ./bd;
#X obj 73 49 ../pdmtl/gems.fit.scale fill;
#X connect 0 0 15 0;
#X connect 1 0 2 0;
#X connect 1 1 3 0;
#X connect 1 2 4 0;
#X connect 1 3 5 0;
#X connect 2 0 11 0;
#X connect 3 0 13 0;
#X connect 4 0 14 0;
#X connect 5 0 12 0;
#X connect 6 0 10 0;
#X connect 7 0 8 0;
#X connect 7 1 8 1;
#X connect 7 2 8 2;
#X connect 8 0 9 0;
#X connect 9 0 11 1;
#X connect 9 1 13 1;
#X connect 9 2 14 1;
#X connect 9 3 12 1;
#X connect 10 0 7 0;
#X connect 15 0 1 0;
#X restore 125 422 pd bds;
#X text 174 502 check the slide for the closed hh;
#X obj 389 406 ./closedhh;
#X obj 499 410 ./openhh;
#X obj 374 435 ./tom;
#X obj 513 193 route 36 37 38 42 46;
#X obj 240 75 ./ctl \$1 1000;
#N canvas 557 58 450 321 bds2 0;
#X obj 318 7 inlet;
#X obj 27 21 inlet;
#X obj 49 86 t a a a a;
#X obj 8 131 separator;
#X obj 73 131 separator;
#X obj 138 130 separator;
#X obj 209 131 separator;
#X obj 322 58 poly 4 1;
#X obj 322 86 pack f f f;
#X obj 319 113 route 1 2 3 4;
#X msg 320 33 \$1 \$1;
#X obj 83 237 ./bd2;
#X obj 153 237 ./bd2;
#X obj 218 236 ./bd2;
#X obj 26 237 ./bd2;
#X obj 73 49 ../pdmtl/gems.fit.scale fill;
#X connect 0 0 10 0;
#X connect 1 0 15 0;
#X connect 2 0 3 0;
#X connect 2 1 4 0;
#X connect 2 2 5 0;
#X connect 2 3 6 0;
#X connect 3 0 14 0;
#X connect 4 0 11 0;
#X connect 5 0 12 0;
#X connect 6 0 13 0;
#X connect 7 0 8 0;
#X connect 7 1 8 1;
#X connect 7 2 8 2;
#X connect 8 0 9 0;
#X connect 9 0 14 1;
#X connect 9 1 11 1;
#X connect 9 2 12 1;
#X connect 9 3 13 1;
#X connect 10 0 7 0;
#X connect 15 0 2 0;
#X restore 36 422 pd bds2;
#X obj 423 251 t b a;
#X msg 393 252 0;
#X obj 541 267 t b a;
#X obj 626 264 t b a;
#X obj 747 265 t b a;
#X msg 607 298 2;
#X msg 695 291 3;
#X obj 164 230 demultiplex 0 1 2 3 4 5;
#X obj 823 261 t b a;
#X msg 783 292 4;
#X obj 101 258 t a a;
#X obj 73 291 separator;
#X obj 138 296 separator;
#X msg 506 286 0;
#X connect 0 0 8 0;
#X connect 7 0 10 0;
#X connect 7 1 12 0;
#X connect 7 2 13 0;
#X connect 7 3 14 0;
#X connect 7 4 18 0;
#X connect 8 0 17 0;
#X connect 8 1 7 0;
#X connect 10 0 11 0;
#X connect 10 1 9 1;
#X connect 11 0 17 1;
#X connect 12 0 23 0;
#X connect 12 1 2 1;
#X connect 13 0 15 0;
#X connect 13 1 1 1;
#X connect 14 0 16 0;
#X connect 14 1 4 1;
#X connect 15 0 17 1;
#X connect 16 0 17 1;
#X connect 17 0 20 0;
#X connect 17 2 1 0;
#X connect 17 3 4 0;
#X connect 17 4 5 0;
#X connect 18 0 19 0;
#X connect 18 1 5 1;
#X connect 19 0 17 1;
#X connect 20 0 21 0;
#X connect 20 1 22 0;
#X connect 21 0 9 0;
#X connect 22 0 2 0;
#X connect 23 0 17 1;
