#N canvas 955 89 581 303 10;
#X floatatom 109 112 5 0 0 0 - - -;
#X floatatom 143 131 5 0 0 0 - - -;
#X obj 186 130 tgl 15 0 empty empty empty 17 7 0 10 -262144 -1 -1 1
1;
#X obj 55 146 tgl 15 0 empty empty empty 17 7 0 10 -262144 -1 -1 1
1;
#X obj 56 81 loadbang;
#X text 74 146 feedback on/off;
#X obj 32 144 tgl 15 0 empty empty empty 0 -6 0 10 -262144 -1 -1 1
1;
#X obj 119 57 inlet;
#X msg 67 104 0;
#X obj 14 107 inlet;
#X obj 54 172 ../pdmtl/gems.win.feedback;
#X obj 119 81 ../pdmtl/scale.linear 0 127 0 1;
#X obj 330 56 inlet;
#X obj 266 132 ../pdmtl/scale.linear 0 127 -1 1;
#X connect 0 0 10 2;
#X connect 1 0 10 3;
#X connect 2 0 10 4;
#X connect 3 0 10 1;
#X connect 4 0 8 0;
#X connect 6 0 10 0;
#X connect 7 0 11 0;
#X connect 8 0 3 0;
#X connect 8 0 6 0;
#X connect 9 0 6 0;
#X connect 9 0 3 0;
#X connect 9 0 2 0;
#X connect 11 0 0 0;
#X connect 12 0 13 0;
#X connect 13 0 1 0;
