#N canvas 0 0 450 300 10;
#N canvas 10 248 991 349 funsquare 0;
#X obj 484 278 translateXYZ 1 0 0;
#X obj 343 279 translateXYZ -1 0 0;
#X obj 55 278 translateXYZ 0 1 0;
#X obj 199 277 translateXYZ 0 -1 0;
#X obj 102 151 separator;
#X obj 189 149 separator;
#X obj 304 146 separator;
#X obj 430 153 separator;
#X obj 435 -15 inlet;
#X obj 154 -9 inlet;
#X obj 56 330 rectangle 1 1;
#X obj 199 325 rectangle 1 1;
#X obj 362 320 rectangle 1 1;
#X obj 534 317 rectangle 1 1;
#X obj 222 80 scaleXYZ;
#X obj 418 99 * -1;
#X obj 683 -20 inlet line_width;
#X obj 796 125 + 1;
#X obj 802 201 /;
#X floatatom 796 240 5 0 0 0 - - -;
#X floatatom 830 148 5 0 0 0 - - -;
#X msg 773 166 1 \$1;
#X obj 708 43 f;
#X obj 911 64 f;
#X obj 299 -26 loadbang;
#X obj 322 70 t f f f;
#X obj 293 6 f \$1;
#X obj 299 28 sel 0;
#X msg 285 52 1;
#X obj 796 30 sel 0;
#X msg 782 54 1;
#X obj 790 8 f \$2;
#X connect 0 0 13 0;
#X connect 1 0 12 0;
#X connect 2 0 10 0;
#X connect 3 0 11 0;
#X connect 4 0 2 0;
#X connect 5 0 3 0;
#X connect 6 0 1 0;
#X connect 7 0 0 0;
#X connect 8 0 25 0;
#X connect 9 0 14 0;
#X connect 14 0 4 0;
#X connect 14 0 5 0;
#X connect 14 0 6 0;
#X connect 14 0 7 0;
#X connect 15 0 1 1;
#X connect 15 0 3 2;
#X connect 16 0 22 0;
#X connect 17 0 21 0;
#X connect 17 0 20 0;
#X connect 17 0 23 0;
#X connect 18 0 19 0;
#X connect 18 0 14 1;
#X connect 18 0 14 2;
#X connect 21 0 18 0;
#X connect 22 0 10 2;
#X connect 22 0 11 2;
#X connect 22 0 12 1;
#X connect 22 0 13 1;
#X connect 22 0 17 0;
#X connect 23 0 13 2;
#X connect 23 0 12 2;
#X connect 23 0 11 1;
#X connect 23 0 10 1;
#X connect 24 0 26 0;
#X connect 24 0 31 0;
#X connect 25 0 2 2;
#X connect 25 1 0 1;
#X connect 25 2 15 0;
#X connect 26 0 27 0;
#X connect 27 0 28 0;
#X connect 27 1 25 0;
#X connect 28 0 25 0;
#X connect 29 0 30 0;
#X connect 29 1 22 0;
#X connect 30 0 22 0;
#X connect 31 0 29 0;
#X restore 78 177 pd funsquare;
#X obj 69 41 inlet;
#X obj 272 45 inlet line width;
#X obj 150 46 inlet spread;
#X connect 1 0 0 0;
#X connect 2 0 0 2;
#X connect 3 0 0 1;
