#N canvas 0 22 1022 687 10;
#N canvas 0 25 993 659 synthlines 0;
#X obj 509 289 f;
#X floatatom 510 206 5 0 0 0 - - -;
#X obj 42 486 translateXYZ 0 0 0;
#X obj 86 444 expr $f1*(2/$f2)-1+(2/$f2)/2;
#X obj 515 253 clip 1 512;
#X obj 510 231 expr rint($f1);
#X obj 366 364 expr (1/$f1)/2;
#X obj 499 164 hsl 256 30 0 512 0 0 empty empty empty -2 -8 0 10 -260818
-1 -1 0 1;
#X msg 402 469 draw line;
#X msg 326 468 draw fill;
#X floatatom 117 218 5 0 0 0 - - -;
#X text 660 152 44.17;
#X obj 21 107 t a b;
#X obj 617 382 b;
#X obj 619 455 line;
#X floatatom 620 493 5 0 0 0 - - -;
#X msg 669 467 1;
#X obj 325 163 t b f;
#X msg 728 414 0 250;
#X msg 616 418 0 \, 1 0;
#X obj 159 -126 inlet;
#X text 205 -127 fill;
#X obj 507 -118 inlet;
#X text 550 -118 line;
#X obj 295 -16 / 127;
#X obj 237 -99 t a b;
#X obj 493 -93 t a b;
#X obj 518 558 line;
#X msg 356 -20 0;
#X obj 314 584 rectangle 1 1;
#X obj 411 396 r \$0drawmode;
#X obj 355 425 sel 0 1;
#X obj 479 17 s \$0drawmode;
#X msg 323 -90 0;
#X msg 518 -69 1;
#X obj 386 15 r \$0drawmode;
#X obj 312 60 demultiplex 0 1;
#X msg 381 108 1;
#X obj 324 130 s \$0height;
#X obj 508 497 r \$0height;
#X obj 391 276 s \$0width;
#X obj 509 380 r \$0width;
#X msg 509 466 width \$1;
#X obj 511 433 line;
#X floatatom 555 444 5 0 0 0 - - -;
#X obj 273 298 > 0;
#X obj 332 296 > 1;
#X floatatom 332 324 5 0 0 0 - - -;
#X obj 401 82 t a b;
#X floatatom 509 135 5 0 0 0 - - -;
#X msg 507 90 5 127;
#X obj 235 1 * 1;
#X obj 511 413 pack f 50;
#X obj 516 534 pack f 50;
#X obj 437 112 * 4;
#X obj 444 208 max 1;
#X obj 636 -13 r PANIC;
#X floatatom 153 -17 5 0 0 0 - - -;
#X obj 30 -106 inlet;
#X obj 20 75 spigot;
#X floatatom 464 245 5 0 0 0 - - -;
#X obj 47 523 scaleXYZ 3 1 1;
#X obj 120 562 scaleXYZ 1 1 1;
#X obj 211 496 /;
#X obj 208 522 + 0.1;
#X obj 206 473 * 3;
#X obj 35 153 ../pdmtl/gems.fit.scale fill;
#X obj 27 376 ../pdmtl/gems.duplicate 1;
#X obj 79 401 ../pdmtl/count.iter 0 1;
#X obj 252 -42 ../pdmtl/midi.note.split;
#X obj 643 208 ../pdmtl/init.lf 1;
#X connect 0 0 3 1;
#X connect 0 0 6 0;
#X connect 0 0 63 1;
#X connect 0 0 67 1;
#X connect 1 0 5 0;
#X connect 2 0 61 0;
#X connect 3 0 2 2;
#X connect 4 0 0 0;
#X connect 5 0 4 0;
#X connect 6 0 61 2;
#X connect 7 0 1 0;
#X connect 8 0 29 0;
#X connect 9 0 29 0;
#X connect 12 0 66 0;
#X connect 13 0 19 0;
#X connect 14 0 15 0;
#X connect 16 0 14 0;
#X connect 17 0 13 0;
#X connect 17 1 7 0;
#X connect 18 0 14 0;
#X connect 19 0 14 0;
#X connect 20 0 25 0;
#X connect 22 0 26 0;
#X connect 24 0 36 0;
#X connect 25 0 69 0;
#X connect 25 1 33 0;
#X connect 26 0 69 0;
#X connect 26 1 34 0;
#X connect 27 0 29 2;
#X connect 27 0 45 0;
#X connect 28 0 36 0;
#X connect 30 0 31 0;
#X connect 31 0 9 0;
#X connect 31 1 8 0;
#X connect 33 0 32 0;
#X connect 34 0 32 0;
#X connect 35 0 36 1;
#X connect 36 0 38 0;
#X connect 36 1 48 0;
#X connect 37 0 38 0;
#X connect 39 0 53 0;
#X connect 41 0 52 0;
#X connect 42 0 29 0;
#X connect 43 0 42 0;
#X connect 43 0 44 0;
#X connect 43 0 46 0;
#X connect 45 0 59 1;
#X connect 46 0 47 0;
#X connect 46 0 59 1;
#X connect 48 0 54 0;
#X connect 48 1 37 0;
#X connect 50 0 26 0;
#X connect 51 0 17 0;
#X connect 52 0 43 0;
#X connect 53 0 27 0;
#X connect 54 0 55 0;
#X connect 55 0 40 0;
#X connect 55 0 49 0;
#X connect 55 0 60 0;
#X connect 56 0 28 0;
#X connect 58 0 59 0;
#X connect 59 0 12 0;
#X connect 61 0 62 0;
#X connect 62 0 29 0;
#X connect 63 0 64 0;
#X connect 64 0 62 2;
#X connect 65 0 63 0;
#X connect 66 0 67 0;
#X connect 67 0 2 0;
#X connect 67 1 68 0;
#X connect 67 2 68 1;
#X connect 68 0 3 0;
#X connect 68 0 65 0;
#X connect 69 0 51 0;
#X connect 69 0 57 0;
#X connect 69 1 24 0;
#X connect 69 2 28 0;
#X connect 70 0 0 0;
#X restore 184 237 pd synthlines;
#X obj 182 195 ./ctl \$1;
#X obj 166 108 inlet;
#X connect 1 0 0 0;
#X connect 1 1 0 1;
#X connect 2 0 1 0;
