#N canvas 687 218 993 659 10;
#X floatatom 70 285 5 0 0 0 - - -;
#X obj 71 51 tgl 15 0 empty empty empty 0 -6 0 10 -262144 -1 -1 0 1
;
#X obj 9 403 scale 0.5;
#X msg 38 211 5.33 \, \$1 \$2;
#X obj 250 497 bng 15 250 50 0 empty empty empty 0 -6 0 10 -262144
-1 -1;
#X obj 395 117 t b b b b b;
#X obj 903 827 outlet;
#X obj 263 431 loadbang;
#X obj 526 366 t b b b b;
#X obj 253 -118 inlet;
#X obj 564 154 square;
#X obj 557 10 pix_image;
#X obj 564 130 pix_texture;
#X obj 765 -120 loadbang;
#X msg 765 -85 open intro512.png;
#X msg 142 82 1;
#X obj 5 350 translateXYZ 0 0 0.1;
#X obj 240 -56 t b b b;
#X obj 336 -12 t b b;
#X msg 438 14 1;
#X obj 174 -59 bng 15 250 50 0 empty empty empty 17 7 0 10 -262144
-1 -1;
#X obj 336 13 delay 20000;
#X obj 563 84 colorRGB;
#X obj 564 109 alpha;
#X msg 337 40 0;
#X obj 480 -35 > 0;
#X msg 414 53 \$1 3000;
#X msg 186 274 0;
#X obj 610 -102 loadbang;
#X msg 611 -77 0;
#X msg 466 -89 0;
#X msg 396 191 connect localhost 7890 \, send play;
#X msg 670 210 send stop;
#X obj 780 139 expr 1000/$f1;
#X floatatom 774 107 5 0 0 0 - - -;
#X floatatom 784 175 10 0 0 0 - - -;
#X obj 60 244 line 0 16.6667;
#X obj 436 81 line 0 16.6667;
#X obj 321 -88 sel 1 0;
#X obj 18 -116 inlet;
#X obj 14 101 spigot;
#X obj 74 -13 r PANIC;
#X msg 77 14 0;
#X obj 25 151 t a a;
#X obj 12 185 separator;
#X obj 208 106 separator;
#X obj 556 -39 spigot;
#X obj 385 -115 r PANIC;
#X msg 387 -72 0;
#X obj 526 339 route done;
#X obj 526 309 receive CUE;
#X obj 664 183 spigot;
#X msg 467 146 1;
#X obj 612 333 print;
#X obj 127 196 ../pdmtl/list.split 1;
#X obj 214 217 ../pdmtl/list.split 2;
#X obj 557 36 ../pdmtl/gems.fit.scale fill;
#X obj 5 534 ../pdmtl/gems.text @font pixel.ttf @justify left middle
;
#X obj 559 257 netsend 1;
#X connect 0 0 16 1;
#X connect 1 0 40 1;
#X connect 2 0 57 0;
#X connect 3 0 36 0;
#X connect 4 0 57 1;
#X connect 5 0 31 0;
#X connect 5 2 57 1;
#X connect 5 4 52 0;
#X connect 7 0 4 0;
#X connect 8 1 27 0;
#X connect 8 2 6 0;
#X connect 8 3 4 0;
#X connect 9 0 38 0;
#X connect 11 0 56 0;
#X connect 12 0 10 0;
#X connect 13 0 14 0;
#X connect 14 0 11 0;
#X connect 15 0 1 0;
#X connect 16 0 2 0;
#X connect 17 0 15 0;
#X connect 17 1 18 0;
#X connect 17 2 5 0;
#X connect 18 0 21 0;
#X connect 18 1 19 0;
#X connect 19 0 26 0;
#X connect 20 0 17 0;
#X connect 21 0 24 0;
#X connect 22 0 23 0;
#X connect 23 0 12 0;
#X connect 24 0 26 0;
#X connect 25 0 46 1;
#X connect 26 0 37 0;
#X connect 27 0 1 0;
#X connect 28 0 29 0;
#X connect 29 0 46 1;
#X connect 30 0 1 0;
#X connect 30 0 37 0;
#X connect 30 0 51 0;
#X connect 33 0 35 0;
#X connect 34 0 33 0;
#X connect 36 0 0 0;
#X connect 37 0 25 0;
#X connect 37 0 22 4;
#X connect 38 0 17 0;
#X connect 38 1 30 0;
#X connect 39 0 40 0;
#X connect 40 0 43 0;
#X connect 41 0 42 0;
#X connect 42 0 1 0;
#X connect 43 0 44 0;
#X connect 43 1 45 0;
#X connect 44 0 16 0;
#X connect 45 0 46 0;
#X connect 46 0 11 0;
#X connect 47 0 48 0;
#X connect 48 0 38 0;
#X connect 49 0 8 0;
#X connect 49 1 54 0;
#X connect 50 0 49 0;
#X connect 50 0 53 0;
#X connect 51 0 32 0;
#X connect 52 0 51 1;
#X connect 54 1 55 0;
#X connect 55 0 3 0;
#X connect 55 1 57 1;
#X connect 56 0 22 0;
