#N canvas 262 29 645 376 10;
#X obj 58 19 inlet;
#X obj 62 83 t a a a a;
#X obj 33 197 separator;
#X obj 115 194 separator;
#X obj 211 195 separator;
#X obj 288 195 separator;
#X obj 106 49 ./ctl \$1 99;
#X obj 63 260 ./scrollingLine;
#X obj 274 72 pack f f f;
#X obj 277 106 route 1 2 3 4;
#X msg 259 11 stop;
#X obj 276 41 poly 4 1;
#X obj 428 257 ./scrollingLine;
#X obj 179 258 ./scrollingLine;
#X obj 289 257 ./scrollingLine;
#X connect 0 0 6 0;
#X connect 1 0 2 0;
#X connect 1 1 3 0;
#X connect 1 2 4 0;
#X connect 1 3 5 0;
#X connect 2 0 7 0;
#X connect 3 0 13 0;
#X connect 4 0 14 0;
#X connect 5 0 12 0;
#X connect 6 0 1 0;
#X connect 6 1 11 0;
#X connect 6 2 10 0;
#X connect 8 0 9 0;
#X connect 9 0 7 1;
#X connect 9 1 13 1;
#X connect 9 2 14 1;
#X connect 9 3 12 1;
#X connect 10 0 11 0;
#X connect 11 0 8 0;
#X connect 11 1 8 1;
#X connect 11 2 8 2;
