#N canvas 255 22 763 656 10;
#X floatatom 128 223 5 0 0 0 - - -;
#X text 777 28 < osc;
#X obj 120 581 rectangle;
#X obj 288 315 line;
#X floatatom 282 241 5 0 0 0 - - -;
#X msg 369 527 draw fill;
#X msg 297 526 draw line;
#X obj 345 494 sel 0 1;
#X text 508 8 note;
#X floatatom 623 63 5 0 0 0 - - -;
#X floatatom 578 95 5 0 0 0 - - -;
#X obj 97 354 scaleXYZ 2 0.3 1;
#X obj 550 8 inlet midi;
#X obj 374 16 inlet gemhead;
#X obj 273 36 t a b b;
#X msg 480 102 0;
#X obj 380 169 spigot;
#X msg 422 115 1;
#X obj 78 531 alpha;
#X obj 433 167 tgl 15 0 empty empty empty 17 7 0 10 -262144 -1 -1 0
1;
#X obj 400 68 delay 400;
#X obj 471 422 loadbang;
#X obj 471 445 int \$1;
#X obj 127 196 int;
#X obj 372 400 tgl 15 0 empty empty empty 17 7 0 10 -262144 -1 -1 0
1;
#X obj 375 225 t a b;
#X obj 366 446 spigot;
#X obj 615 191 / 140;
#X obj 658 229 / 127;
#X msg 274 282 \$1 50;
#X obj 81 507 color;
#X obj 124 155 ../pdmtl/scale.linear 0 127 0 75;
#X obj 379 190 ../pdmtl/gems.fit.scale fill;
#X obj 98 312 ../pdmtl/gems.multi.cube 1 1 1;
#X obj 552 35 ../pdmtl/midi.note.split;
#X connect 0 0 4 0;
#X connect 3 0 33 2;
#X connect 4 0 29 0;
#X connect 5 0 2 0;
#X connect 6 0 2 0;
#X connect 7 0 6 0;
#X connect 7 1 5 0;
#X connect 11 0 30 0;
#X connect 12 0 34 0;
#X connect 13 0 16 0;
#X connect 14 0 31 0;
#X connect 14 1 17 0;
#X connect 14 2 20 0;
#X connect 15 0 19 0;
#X connect 16 0 32 0;
#X connect 17 0 19 0;
#X connect 18 0 2 0;
#X connect 19 0 16 1;
#X connect 20 0 15 0;
#X connect 21 0 22 0;
#X connect 22 0 26 1;
#X connect 23 0 0 0;
#X connect 24 0 26 0;
#X connect 25 0 33 0;
#X connect 25 1 24 0;
#X connect 26 0 7 0;
#X connect 27 0 11 2;
#X connect 29 0 3 0;
#X connect 30 0 18 0;
#X connect 31 0 23 0;
#X connect 32 0 25 0;
#X connect 33 0 11 0;
#X connect 34 0 10 0;
#X connect 34 0 14 0;
#X connect 34 1 9 0;
#X connect 34 1 27 0;
#X connect 34 1 28 0;
#X connect 34 2 15 0;
