#N canvas 179 213 892 687 10;
#X floatatom 319 337 5 0 0 0 - - -;
#X floatatom 362 337 5 0 0 0 - - -;
#X floatatom 478 429 5 0 0 0 - - -;
#X floatatom 247 128 5 0 0 0 - - -;
#X obj 249 104 line;
#X obj 246 629 alpha;
#X obj 262 410 random 2;
#X obj 246 607 color;
#X obj 246 656 square;
#X msg 269 439 1 1 1 \$1;
#X obj 9 112 tgl 20 0 empty bw empty 17 7 0 10 -262144 -1 -1 0 1;
#X msg 20 555 draw fill;
#X text 6 67 color black/white;
#X obj 106 119 tgl 15 0 empty df empty 17 7 0 10 -262144 -1 -1 0 1
;
#X obj 16 275 sel 1 0;
#X text 129 122 fill line;
#X obj 203 179 line;
#X obj 432 279 loadbang;
#X msg 432 299 0;
#X msg 21 581 draw line \, width 10;
#X obj 247 575 translateXYZ;
#X obj 659 260 snapshot~;
#X floatatom 658 285 5 0 0 0 - - -;
#X obj 9 87 inlet;
#X obj 633 407 spigot;
#X obj 678 351 tgl 15 0 empty synth empty 17 7 0 10 -262144 -1 -1 0
1;
#X obj 106 91 inlet;
#X obj 344 7 inlet;
#X floatatom 507 45 5 0 0 0 - - -;
#X floatatom 460 38 5 0 0 0 - - -;
#X obj 192 50 inlet;
#X obj 678 481 sel 0;
#X msg 689 525 0.98;
#X obj 529 98 t a b;
#X obj 356 458 t b a;
#X obj 383 394 scale;
#X obj 625 107 t f b;
#X obj 258 239 int;
#X obj 286 239 int;
#X obj 96 228 demultiplex 0 1;
#X obj 110 362 random 3;
#X obj 341 33 ./ctl \$1 2000;
#X obj 470 329 loadbang;
#X msg 472 355 0.98;
#X msg 72 441 1 0 0;
#X msg 184 439 0 0 0;
#X msg 230 439 1 1 1;
#X msg 128 440 0 1 1;
#X obj 108 399 sel 0 1 2 3;
#X obj 195 124 r vert;
#X obj 264 55 r hor;
#X msg 205 152 \$1 500;
#X msg 275 78 \$1 500;
#X obj 710 103 r cycle;
#X msg 669 187 0.5;
#X msg 702 179 2;
#X obj 659 231 phasor~ 2;
#X obj 259 166 ../pdmtl/scale.linear 1 127 0 100;
#X obj 449 155 ../pdmtl/gems.fit.scale fill;
#X obj 324 197 ../pdmtl/scale.linear 1 127 1 20;
#X obj 431 10 ../pdmtl/midi.note.split;
#X obj 651 137 ../pdmtl/scale.linear 0 127 1 20;
#X obj 319 367 ../pdmtl/gems.multi.cube;
#X connect 0 0 62 1;
#X connect 1 0 62 2;
#X connect 2 0 35 1;
#X connect 3 0 57 0;
#X connect 4 0 3 0;
#X connect 5 0 8 0;
#X connect 6 0 9 0;
#X connect 7 0 5 0;
#X connect 9 0 7 1;
#X connect 10 0 39 1;
#X connect 11 0 8 0;
#X connect 13 0 14 0;
#X connect 14 0 11 0;
#X connect 14 1 19 0;
#X connect 16 0 59 0;
#X connect 17 0 18 0;
#X connect 18 0 0 0;
#X connect 18 0 1 0;
#X connect 19 0 8 0;
#X connect 20 0 7 0;
#X connect 21 0 22 0;
#X connect 22 0 24 0;
#X connect 23 0 10 0;
#X connect 24 0 2 0;
#X connect 25 0 24 1;
#X connect 25 0 31 0;
#X connect 26 0 13 0;
#X connect 27 0 41 0;
#X connect 28 0 59 0;
#X connect 29 0 57 0;
#X connect 30 0 25 0;
#X connect 31 0 32 0;
#X connect 32 0 2 0;
#X connect 33 0 58 0;
#X connect 33 1 21 0;
#X connect 34 0 39 0;
#X connect 34 1 20 0;
#X connect 35 0 34 0;
#X connect 36 0 28 0;
#X connect 36 1 54 0;
#X connect 37 0 1 0;
#X connect 38 0 0 0;
#X connect 39 0 40 0;
#X connect 39 1 6 0;
#X connect 40 0 48 0;
#X connect 41 0 33 0;
#X connect 41 1 60 0;
#X connect 42 0 43 0;
#X connect 43 0 35 1;
#X connect 44 0 7 1;
#X connect 45 0 7 1;
#X connect 46 0 7 1;
#X connect 47 0 7 1;
#X connect 48 0 44 0;
#X connect 48 1 47 0;
#X connect 48 2 45 0;
#X connect 48 3 46 0;
#X connect 49 0 51 0;
#X connect 50 0 52 0;
#X connect 51 0 16 0;
#X connect 52 0 4 0;
#X connect 53 0 61 0;
#X connect 56 0 21 0;
#X connect 57 0 37 0;
#X connect 58 0 62 0;
#X connect 59 0 0 0;
#X connect 60 0 29 0;
#X connect 60 1 36 0;
#X connect 60 2 41 1;
#X connect 61 0 56 0;
#X connect 62 0 35 0;
