#N canvas 0 22 835 534 10;
#X obj 72 17 inlet;
#X obj 72 80 ./ctl \$1;
#X obj 100 272 square;
#X obj 100 233 scaleXYZ 1 0.01 1;
#X obj 297 197 repeat;
#X obj 100 192 separator;
#X obj 288 242 translateXYZ;
#X obj 289 219 t a b;
#X obj 233 269 * 0.0001;
#X obj 72 157 ../pdmtl/gems.fit.scale fill;
#X obj 255 154 ../pdmtl/midi.note.split;
#X obj 362 204 ../pdmtl/random.f -1 1;
#X connect 0 0 1 0;
#X connect 1 0 9 0;
#X connect 1 1 10 0;
#X connect 3 0 2 0;
#X connect 4 0 5 0;
#X connect 5 0 7 0;
#X connect 6 0 3 0;
#X connect 7 0 6 0;
#X connect 7 1 11 0;
#X connect 8 0 3 2;
#X connect 9 0 4 0;
#X connect 10 0 4 1;
#X connect 10 1 8 0;
#X connect 10 2 1 1;
#X connect 11 0 6 2;
