#N canvas 113 158 1135 664 10;
#X msg 162 169 1;
#X msg 74 198 0;
#X obj 525 588 translateXYZ 0 -0.2 0;
#X obj 370 411 * -1;
#X obj 3 5 inlet gemhead;
#X obj 38 240 spigot;
#X obj 528 615 rectangle 1 0.1;
#X obj 227 614 rectangle 1 0.1;
#X obj 154 502 t a a;
#X obj 468 542 separator;
#X obj 162 552 separator;
#X obj 225 589 translateXYZ 0 0.2 0;
#X obj 187 51 sel 0;
#X obj 555 325 / 127;
#X obj 293 224 / 127;
#X obj 290 247 + 0.02;
#X obj 308 386 line;
#X obj 253 67 * 0.5;
#X obj 192 251 delay 375;
#X obj 308 273 t f f;
#X msg 294 359 \$1 0 \, \$3 \$2;
#X obj 305 330 pack f 75 1;
#X obj 369 292 expr 1-$f1;
#X obj 330 111 * 0.5;
#X obj 400 160 * 0.25;
#X obj 417 41 ./interval;
#X obj 248 106 t b f b;
#X obj 188 15 inlet velocity;
#X obj 117 291 ../pdmtl/gems.fit.scale fill;
#X connect 0 0 5 1;
#X connect 1 0 5 1;
#X connect 2 0 6 0;
#X connect 3 0 2 2;
#X connect 4 0 5 0;
#X connect 5 0 28 0;
#X connect 8 0 10 0;
#X connect 8 1 9 0;
#X connect 9 0 2 0;
#X connect 10 0 11 0;
#X connect 11 0 7 0;
#X connect 12 1 17 0;
#X connect 13 0 7 2;
#X connect 13 0 6 2;
#X connect 14 0 15 0;
#X connect 15 0 19 0;
#X connect 16 0 3 0;
#X connect 16 0 11 2;
#X connect 17 0 26 0;
#X connect 18 0 1 0;
#X connect 19 0 21 0;
#X connect 19 1 22 0;
#X connect 20 0 16 0;
#X connect 21 0 20 0;
#X connect 22 0 21 2;
#X connect 23 0 18 1;
#X connect 24 0 21 1;
#X connect 25 0 23 0;
#X connect 25 0 24 0;
#X connect 26 0 0 0;
#X connect 26 0 18 0;
#X connect 26 1 13 0;
#X connect 26 1 14 0;
#X connect 26 2 25 0;
#X connect 27 0 12 0;
#X connect 28 0 8 0;
