#N canvas 352 258 837 741 10;
#X obj 100 442 square;
#X obj 160 -200 inlet;
#X obj 85 -50 ./ctl \$1;
#X obj 98 316 ../pdmtl/gems.fit.scale fill;
#X obj 86 167 t b a;
#X connect 1 0 2 0;
#X connect 2 0 4 0;
#X connect 3 0 0 0;
#X connect 4 1 3 0;
