#N canvas 1219 241 450 300 10;
#N canvas 270 188 993 659 newSig 1;
#N canvas 80 424 571 344 noise 0;
#X obj 128 58 inlet;
#X obj 145 263 outlet;
#X floatatom 448 101 5 0 0 0 - - -;
#X obj 393 197 *;
#X floatatom 388 234 5 0 0 0 - - -;
#X msg 391 159 32 32;
#X obj 242 16 inlet~;
#X msg 454 48 4096;
#X msg 321 158 64 64;
#X obj 344 42 block~ 1024;
#X obj 144 200 pix_sig2pix~ 32 32;
#X obj 263 167 sig~ 1;
#X connect 0 0 10 0;
#X connect 3 0 4 0;
#X connect 5 0 3 0;
#X connect 6 0 10 2;
#X connect 6 0 10 1;
#X connect 6 0 10 0;
#X connect 10 0 1 0;
#X connect 11 0 10 3;
#X restore 226 286 pd noise;
#X obj 186 438 pix_texture;
#X msg 310 402 quality \$1;
#X obj 315 373 tgl 15 0 empty empty empty 0 -6 0 8 -262144 -1 -1 0
1;
#X obj 341 294 loadbang;
#X msg 342 327 0;
#X obj 261 45 inlet;
#X obj 177 619 rectangle 1 1;
#X obj 584 48 inlet;
#X obj 585 85 * 12;
#X obj 171 507 color;
#X obj 438 287 / 127;
#X obj 313 219 *~;
#X obj 279 97 t a b;
#X msg 334 191 1;
#X msg 218 481 \$1 \$1 \$1;
#X obj 309 143 ./depracated/synth.beep~ 1638 500;
#X obj 15 74 inlet;
#X obj 620 590 outlet;
#X obj 301 70 ../pdmtl/midi.note.split;
#X connect 0 0 1 0;
#X connect 1 0 10 0;
#X connect 2 0 1 0;
#X connect 3 0 2 0;
#X connect 4 0 5 0;
#X connect 5 0 3 0;
#X connect 6 0 19 0;
#X connect 8 0 9 0;
#X connect 9 0 16 0;
#X connect 10 0 7 0;
#X connect 11 0 15 0;
#X connect 12 0 0 1;
#X connect 13 0 16 0;
#X connect 13 1 14 0;
#X connect 14 0 12 1;
#X connect 15 0 10 1;
#X connect 16 0 12 0;
#X connect 17 0 0 0;
#X connect 19 0 13 0;
#X connect 19 1 11 0;
#X connect 19 2 18 0;
#X restore 152 220 pd newSig;
#X obj 109 49 inlet;
#X obj 126 82 ./ctl \$1;
#X obj 93 150 ../pdmtl/gems.fit.scale fill;
#X connect 0 0 2 1;
#X connect 1 0 2 0;
#X connect 2 0 3 0;
#X connect 2 1 0 1;
#X connect 3 0 0 0;
