#N canvas 0 24 999 664 10;
#X obj 426 184 separator;
#X obj 310 139 separator;
#X obj 459 412 color 1 1 1;
#X obj 102 143 separator;
#X obj 129 401 color 1 1 1;
#X obj 31 380 color 0 0 0;
#X obj 3 126 separator;
#X msg 229 161 \$1 \$1 \$1;
#X msg 334 178 \$1 \$1 \$1;
#X obj 233 140 == 0;
#X obj 281 80 tgl 15 0 empty empty empty 17 7 0 10 -262144 -1 -1 0
1;
#X obj 282 110 f;
#X obj 75 65 t a a a a b;
#X obj 267 52 sel 0;
#X obj 588 417 line;
#X obj 28 416 scale 1;
#X obj 139 438 scale 2;
#X obj 433 459 scale 4;
#X obj 594 188 bng 15 250 50 0 empty empty empty 17 7 0 10 -262144
-1 -1;
#X obj 384 416 line;
#X obj 269 405 color 0 0 0;
#X msg 585 255 0;
#X obj 418 238 delay 250;
#X obj 299 262 delay 250;
#X obj 232 375 line;
#X obj 57 250 delay 250;
#X obj 42 342 line;
#X obj 198 -28 spigot 0;
#X msg 174 83 1;
#X msg 658 100 0;
#X obj 629 21 bng 15 250 50 0 empty empty empty 17 7 0 10 -262144 -1
-1;
#X msg 691 98 0;
#X obj 241 557 square;
#X obj 160 194 delay 250;
#X obj 279 455 scale 3;
#X msg 684 376 0;
#X obj 424 266 f;
#X obj 301 282 f;
#X obj 58 272 f;
#X floatatom 718 165 5 0 0 0 - - -;
#X obj 638 45 t b b b b;
#X obj 718 215 pow 2;
#X obj 671 216 pow 3;
#X obj 643 288 f 4;
#X obj 688 263 * 4;
#X obj 737 265 * 4;
#X obj 822 256 * 4;
#X msg 444 -36 1;
#X obj 800 59 / 127;
#X obj 273 29 mod 3;
#X obj 58 291 pack f 250;
#X msg 54 312 0 \, \$1 \$2;
#X obj 298 307 pack f 250;
#X msg 300 334 0 \, \$1 \$2;
#X obj 441 317 pack f 250;
#X msg 420 347 0 \, \$1 \$2;
#X obj 624 317 pack f 250;
#X msg 620 341 0 \, \$1 \$2;
#X obj 803 -38 f 250;
#X obj 800 -61 * 0.5;
#X obj 34 33 scaleXYZ 0.2 0.2 0.2;
#X obj 442 -83 t b b f b;
#X obj 46 -62 t a b;
#X obj 28 -157 inlet;
#X obj 660 -85 value TV4interval;
#X floatatom 852 6 5 0 0 0 - - -;
#X floatatom 667 -51 5 0 0 0 - - -;
#X obj 679 -127 bng 15 250 50 0 empty empty empty 17 7 0 10 -262144
-1 -1;
#X obj 43 -123 ./ctl \$1;
#X obj 372 -16 tgl 15 0 empty empty empty 17 7 0 10 -262144 -1 -1 0
1;
#X msg 338 112 stop;
#X obj 214 -168 ../pdmtl/midi.note.split;
#X obj 33 -16 ../pdmtl/gems.fit.scale fill;
#X obj 36 8 ../pdmtl/gems.multi.cube 1 \$2 1;
#X obj 269 5 ../pdmtl/count.iter;
#X connect 0 0 2 0;
#X connect 1 0 20 0;
#X connect 2 0 17 0;
#X connect 3 0 4 0;
#X connect 4 0 16 0;
#X connect 5 0 15 0;
#X connect 6 0 5 0;
#X connect 7 0 4 1;
#X connect 7 0 2 1;
#X connect 8 0 5 1;
#X connect 8 0 20 1;
#X connect 9 0 7 0;
#X connect 10 0 11 0;
#X connect 11 0 9 0;
#X connect 11 0 8 0;
#X connect 12 0 6 0;
#X connect 12 1 3 0;
#X connect 12 2 1 0;
#X connect 12 3 0 0;
#X connect 13 0 10 0;
#X connect 14 0 17 1;
#X connect 15 0 32 0;
#X connect 16 0 32 0;
#X connect 17 0 32 0;
#X connect 18 0 21 0;
#X connect 18 0 22 0;
#X connect 18 0 43 0;
#X connect 19 0 34 1;
#X connect 20 0 34 0;
#X connect 21 0 19 0;
#X connect 21 0 24 0;
#X connect 21 0 26 0;
#X connect 22 0 23 0;
#X connect 22 0 36 0;
#X connect 23 0 25 0;
#X connect 23 0 37 0;
#X connect 24 0 16 1;
#X connect 25 0 33 0;
#X connect 25 0 38 0;
#X connect 26 0 15 1;
#X connect 27 0 74 0;
#X connect 28 0 69 0;
#X connect 28 0 27 1;
#X connect 29 0 10 0;
#X connect 30 0 40 0;
#X connect 31 0 27 1;
#X connect 31 0 69 0;
#X connect 33 0 28 0;
#X connect 34 0 32 0;
#X connect 35 0 14 0;
#X connect 36 0 54 0;
#X connect 37 0 52 0;
#X connect 38 0 50 0;
#X connect 39 0 42 0;
#X connect 39 0 41 0;
#X connect 39 0 46 0;
#X connect 40 0 18 0;
#X connect 40 1 29 0;
#X connect 40 2 31 0;
#X connect 40 3 39 0;
#X connect 40 3 70 0;
#X connect 41 0 45 0;
#X connect 42 0 44 0;
#X connect 43 0 56 0;
#X connect 44 0 38 1;
#X connect 45 0 37 1;
#X connect 46 0 36 1;
#X connect 48 0 39 0;
#X connect 49 0 13 0;
#X connect 50 0 51 0;
#X connect 51 0 26 0;
#X connect 52 0 53 0;
#X connect 53 0 24 0;
#X connect 54 0 55 0;
#X connect 55 0 19 0;
#X connect 56 0 57 0;
#X connect 57 0 14 0;
#X connect 58 0 56 1;
#X connect 58 0 54 1;
#X connect 58 0 52 1;
#X connect 58 0 50 1;
#X connect 58 0 25 1;
#X connect 58 0 23 1;
#X connect 58 0 22 1;
#X connect 58 0 33 1;
#X connect 58 0 65 0;
#X connect 59 0 58 0;
#X connect 60 0 12 0;
#X connect 61 0 30 0;
#X connect 61 1 47 0;
#X connect 61 2 48 0;
#X connect 61 3 64 0;
#X connect 62 0 72 0;
#X connect 62 1 27 0;
#X connect 63 0 68 0;
#X connect 64 0 59 0;
#X connect 64 0 66 0;
#X connect 67 0 64 0;
#X connect 68 0 62 0;
#X connect 68 1 71 0;
#X connect 70 0 33 0;
#X connect 71 0 61 0;
#X connect 71 1 49 1;
#X connect 71 2 68 1;
#X connect 72 0 73 0;
#X connect 73 0 60 0;
#X connect 74 0 49 0;
