#N canvas 25 27 1022 687 10;
#X obj 304 -1 inlet;
#X obj 93 416 translateXYZ;
#X msg 482 349 0;
#X obj 538 300 delay 500;
#X msg 614 234 stop;
#X obj 249 157 t b b b b;
#X obj 338 315 line;
#X msg 248 340 1;
#X obj 310 83 t b f;
#X obj 116 540 rectangle;
#X obj 113 474 scaleXYZ;
#X obj 56 31 inlet GEMLIST;
#X obj 67 235 spigot;
#X obj 312 393 / 127;
#X obj 538 157 t b b;
#X msg 221 242 -1 0;
#X obj 313 220 f 500;
#X msg 349 268 4 \$1;
#X obj 527 98 ./interval;
#X obj 438 128 *;
#X obj 423 68 / 64;
#X obj 425 91 int;
#X obj 467 94 t f b;
#X obj 395 118 + 1;
#X obj 530 123 * 2;
#X obj 302 433 / 2;
#X msg 161 115 0;
#X obj 529 47 expr 1/$f1;
#X floatatom 544 73 5 0 0 0 - - -;
#X obj 71 369 ../pdmtl/gems.fit.scale fill;
#X obj 379 32 ../pdmtl/midi.note.split;
#X connect 0 0 30 0;
#X connect 1 0 10 0;
#X connect 2 0 12 1;
#X connect 3 0 2 0;
#X connect 4 0 3 0;
#X connect 5 0 16 0;
#X connect 5 1 15 0;
#X connect 5 2 3 0;
#X connect 5 3 4 0;
#X connect 5 3 7 0;
#X connect 6 0 1 2;
#X connect 7 0 12 1;
#X connect 8 0 5 0;
#X connect 8 1 13 0;
#X connect 10 0 9 0;
#X connect 11 0 12 0;
#X connect 12 0 29 0;
#X connect 13 0 25 0;
#X connect 14 0 2 0;
#X connect 14 1 4 0;
#X connect 15 0 6 0;
#X connect 16 0 17 0;
#X connect 17 0 6 0;
#X connect 18 0 24 0;
#X connect 19 0 16 1;
#X connect 19 0 3 1;
#X connect 20 0 21 0;
#X connect 21 0 23 0;
#X connect 22 0 19 0;
#X connect 22 1 18 0;
#X connect 23 0 27 0;
#X connect 24 0 19 1;
#X connect 25 0 10 2;
#X connect 26 0 12 1;
#X connect 27 0 22 0;
#X connect 27 0 28 0;
#X connect 29 0 1 0;
#X connect 30 0 8 0;
#X connect 30 1 20 0;
#X connect 30 2 26 0;
