#N canvas 235 61 552 536 10;
#X obj 218 20 inlet;
#X obj 222 53 ./ctl \$1;
#X obj 64 502 square;
#X obj 69 459 scaleXYZ;
#X obj 310 236 / 127;
#X obj 263 344 line;
#X obj 248 202 ./interval;
#X obj 248 180 t b f;
#X obj 247 228 *;
#X obj 253 275 swap;
#X obj 336 170 t f b;
#X msg 409 240 1 0;
#X obj 19 285 spigot;
#X obj 69 298 tgl 15 0 empty empty empty 17 7 0 10 -262144 -1 -1 0
1;
#X obj 184 277 line;
#X obj 163 203 t f b f b;
#X msg 213 310 1;
#X msg 184 252 1 \, 16 \$1;
#X obj 100 338 sel 0;
#X obj 182 307 int;
#X obj 65 161 t a b;
#X obj 99 283 spigot;
#X msg 136 245 1;
#X obj 185 344 t f f;
#X obj 231 391 sel 16;
#X obj 225 421 t b b;
#X msg 259 451 0;
#X msg 214 451 1;
#X obj 245 88 ../pdmtl/midi.note.split;
#X obj 97 313 ../pdmtl/count.modulo;
#X obj 40 414 ../pdmtl/gems.fit.scale fill;
#X connect 0 0 1 0;
#X connect 1 0 20 0;
#X connect 1 1 28 0;
#X connect 3 0 2 0;
#X connect 4 0 9 1;
#X connect 5 0 3 2;
#X connect 6 0 8 0;
#X connect 7 0 6 0;
#X connect 7 1 8 1;
#X connect 8 0 9 0;
#X connect 9 0 5 0;
#X connect 9 1 5 1;
#X connect 9 1 15 0;
#X connect 10 0 4 0;
#X connect 10 1 11 0;
#X connect 11 0 5 0;
#X connect 12 0 30 0;
#X connect 13 0 12 1;
#X connect 14 0 19 0;
#X connect 15 1 22 0;
#X connect 15 2 17 0;
#X connect 15 3 16 0;
#X connect 17 0 14 0;
#X connect 18 0 13 0;
#X connect 19 0 23 0;
#X connect 20 0 12 0;
#X connect 20 1 21 0;
#X connect 21 0 29 0;
#X connect 22 0 21 1;
#X connect 23 0 29 2;
#X connect 23 1 24 0;
#X connect 24 0 25 0;
#X connect 25 0 27 0;
#X connect 25 1 26 0;
#X connect 26 0 21 1;
#X connect 27 0 13 0;
#X connect 28 0 7 0;
#X connect 28 1 10 0;
#X connect 28 2 1 1;
#X connect 29 0 18 0;
#X connect 30 0 3 0;
