#N canvas 1 22 450 300 10;
#X obj 218 20 inlet;
#X obj 222 53 ./ctl \$1;
#X obj 59 264 square;
#X obj 64 221 scaleXYZ;
#X obj 285 188 / 127;
#X obj 227 257 line;
#X obj 223 154 ./interval;
#X obj 223 132 t b f;
#X obj 222 180 *;
#X obj 228 227 swap;
#X obj 305 138 t f b;
#X msg 346 193 1 0;
#X obj 56 157 ../pdmtl/gems.fit.scale fill;
#X obj 245 88 ../pdmtl/midi.note.split;
#X connect 0 0 1 0;
#X connect 1 0 12 0;
#X connect 1 1 13 0;
#X connect 3 0 2 0;
#X connect 4 0 9 1;
#X connect 5 0 3 2;
#X connect 6 0 8 0;
#X connect 7 0 6 0;
#X connect 7 1 8 1;
#X connect 8 0 9 0;
#X connect 9 0 5 0;
#X connect 9 1 5 1;
#X connect 10 0 4 0;
#X connect 10 1 11 0;
#X connect 11 0 5 0;
#X connect 12 0 3 0;
#X connect 13 0 7 0;
#X connect 13 1 10 0;
#X connect 13 2 1 1;
