#N canvas 0 22 1022 687 10;
#X obj 60 44 inlet;
#X obj 246 84 ./ctl \$1;
#X obj 176 592 square;
#X obj 239 289 * 1;
#X obj 234 405 snapshot~;
#X obj 145 499 translateXYZ;
#X obj 80 258 t a b;
#X obj 296 144 t f b b;
#X obj 321 178 ./interval;
#X obj 544 352 line~;
#X obj 543 394 cos~;
#X msg 595 269 0;
#X msg 640 317 -0.25;
#X msg 642 273 0.5;
#X obj 186 230 * 0.5;
#X msg 660 384 0.75 \, 1 1000;
#X obj 242 472 * 2;
#X obj 348 441 * 2;
#X obj 503 261 / 127;
#X msg 545 314 0.75 \, 0.5 \$1;
#X obj 540 172 ../pdmtl/midi.note.split;
#X obj 220 178 ../pdmtl/convert.m2speed;
#X obj 90 350 ../pdmtl/gems.fit.scale fill;
#X connect 0 0 1 0;
#X connect 1 0 6 0;
#X connect 1 1 20 0;
#X connect 3 0 19 0;
#X connect 4 0 16 0;
#X connect 5 0 2 0;
#X connect 6 0 22 0;
#X connect 6 1 4 0;
#X connect 7 0 21 0;
#X connect 7 1 8 0;
#X connect 8 0 3 1;
#X connect 9 0 10 0;
#X connect 10 0 4 0;
#X connect 11 0 19 0;
#X connect 12 0 19 0;
#X connect 13 0 19 0;
#X connect 15 0 9 0;
#X connect 16 0 5 2;
#X connect 17 0 16 1;
#X connect 18 0 17 0;
#X connect 19 0 9 0;
#X connect 20 0 7 0;
#X connect 20 1 18 0;
#X connect 20 2 1 1;
#X connect 21 0 14 0;
#X connect 21 0 3 0;
#X connect 22 0 5 0;
