#N canvas 462 183 683 559 10;
#X obj 16 186 translateXYZ;
#X obj 67 166 line;
#X msg 70 144 \$1 200;
#X obj 331 397 line;
#X msg 331 377 \$1 200;
#X text 212 105 ligne pos y;
#X text 277 228 ligne epaisseur;
#X text 22 13 arg: midi channel;
#X msg 135 382 draw fill;
#X obj 15 334 color;
#X obj 15 360 alpha;
#X obj 43 227 tgl 15 0 empty empty empty 17 7 0 10 -262144 -1 -1 0
1;
#X obj 78 274 line;
#X msg 78 253 \$1 200;
#X obj 160 214 r stop;
#X obj -22 71 inlet;
#X msg 78 296 \$1 \$1 \$1 \$1;
#X obj 105 168 loadbang;
#X msg 105 190 0;
#X msg 210 381 draw line;
#X obj 171 348 sel 1 0;
#X obj 69 61 inlet;
#X obj 432 262 inlet;
#X obj 225 299 tgl 15 0 empty empty empty 17 7 0 10 -262144 -1 -1 0
1;
#X obj 226 245 bng 15 250 50 0 empty empty empty 17 7 0 10 -262144
-1 -1;
#X obj 229 268 spigot;
#X obj 259 250 tgl 15 0 empty empty empty 17 7 0 10 -262144 -1 -1 0
1;
#X obj 285 172 inlet;
#X msg 60 367 width 10;
#X obj 68 346 loadbang;
#X obj 275 297 sel 0;
#X obj 277 274 pipe 10;
#X obj 273 322 1;
#X obj 17 484 rectangle 6 0;
#X obj 125 426 loadbang;
#X msg 129 450 0;
#X obj 331 358 scaler 0 127 0 4;
#X obj 69 118 scaler 0 127 -6 6;
#X obj 13 96 spigot;
#X floatatom 424 317 5 0 0 0 - - -;
#X obj 552 35 midi.note.split;
#X obj 455 62 gems.fit.scale fill;
#X text 508 8 note;
#X obj 456 9 inlet;
#X obj 457 35 ./ctl \$1;
#X floatatom 623 63 5 0 0 0 - - -;
#X floatatom 581 63 5 0 0 0 - - -;
#X connect 0 0 9 0;
#X connect 1 0 0 2;
#X connect 2 0 1 0;
#X connect 3 0 33 2;
#X connect 4 0 3 0;
#X connect 8 0 33 0;
#X connect 9 0 10 0;
#X connect 10 0 33 0;
#X connect 11 0 16 0;
#X connect 11 0 38 1;
#X connect 12 0 16 0;
#X connect 13 0 12 0;
#X connect 14 0 11 0;
#X connect 15 0 11 0;
#X connect 16 0 9 1;
#X connect 17 0 18 0;
#X connect 18 0 16 0;
#X connect 19 0 33 0;
#X connect 20 0 8 0;
#X connect 20 1 19 0;
#X connect 21 0 37 0;
#X connect 22 0 36 0;
#X connect 22 0 39 0;
#X connect 23 0 20 0;
#X connect 24 0 25 0;
#X connect 25 0 23 0;
#X connect 26 0 25 1;
#X connect 27 0 25 1;
#X connect 27 0 31 0;
#X connect 28 0 33 0;
#X connect 29 0 28 0;
#X connect 30 0 32 0;
#X connect 31 0 30 0;
#X connect 32 0 20 0;
#X connect 34 0 35 0;
#X connect 35 0 33 2;
#X connect 36 0 4 0;
#X connect 37 0 2 0;
#X connect 38 0 0 0;
#X connect 40 0 46 0;
#X connect 40 0 37 0;
#X connect 40 1 45 0;
#X connect 40 1 36 0;
#X connect 40 2 44 1;
#X connect 41 0 38 0;
#X connect 41 0 24 0;
#X connect 43 0 44 0;
#X connect 44 0 41 0;
#X connect 44 1 40 0;
