#N canvas 370 161 662 491 10;
#X obj 127 49 ./ctl \$1;
#X obj 127 84 poly 4 1;
#X obj 132 118 pack f f f;
#X obj 44 149 t a a a a;
#X obj 30 204 separator;
#X obj 151 204 separator;
#X obj 222 208 separator;
#X obj 83 199 separator;
#X obj 94 14 inlet;
#X obj 359 167 route 1 2 3 4;
#X msg 217 67 stop;
#X obj 57 279 simplelineTilt \$2;
#X obj 209 293 simplelineTilt \$2;
#X obj 341 273 simplelineTilt \$2;
#X obj 483 273 simplelineTilt \$2;
#X connect 0 0 3 0;
#X connect 0 1 1 0;
#X connect 0 2 10 0;
#X connect 1 0 2 0;
#X connect 1 1 2 1;
#X connect 1 2 2 2;
#X connect 2 0 9 0;
#X connect 3 0 4 0;
#X connect 3 1 7 0;
#X connect 3 2 5 0;
#X connect 3 3 6 0;
#X connect 4 0 11 0;
#X connect 5 0 13 0;
#X connect 6 0 14 0;
#X connect 7 0 12 0;
#X connect 8 0 0 0;
#X connect 9 0 11 1;
#X connect 9 1 12 1;
#X connect 9 2 13 1;
#X connect 9 3 14 1;
#X connect 10 0 1 0;
