#N canvas 298 124 790 571 10;
#X obj 15 192 translateXYZ;
#X obj 69 132 line;
#X obj 343 315 line;
#X msg 343 295 \$1 200;
#X text 212 105 ligne pos y;
#X text 289 146 ligne epaisseur;
#X text 22 13 arg: midi channel;
#X msg 147 300 draw fill;
#X msg 222 299 draw line;
#X obj 183 266 sel 1 0;
#X obj 271 243 tgl 15 0 empty empty empty 17 7 0 10 -262144 -1 -1 0
1;
#X obj 273 198 bng 15 250 50 0 empty empty empty 17 7 0 10 -262144
-1 -1;
#X obj 274 218 spigot;
#X obj 328 200 tgl 15 0 empty empty empty 17 7 0 10 -262144 -1 -1 1
1;
#X obj 98 252 loadbang;
#X floatatom 623 63 5 0 0 0 - - -;
#X floatatom 575 70 5 0 0 0 - - -;
#X floatatom 129 22 5 0 0 0 - - -;
#X floatatom 342 243 5 0 0 0 - - -;
#X obj 17 449 rectangle 6 0;
#X obj 15 254 color;
#X obj 18 285 alpha;
#X obj 58 254 tgl 15 0 empty empty empty 17 7 0 10 -262144 -1 -1 0
1;
#X obj 393 6 inlet gemhead;
#X obj 561 3 inlet midi;
#X obj 407 103 spigot;
#X obj 403 123 t a b;
#X msg 606 103 1;
#X msg 484 79 0;
#X msg 283 77 0;
#X obj 273 45 t a b b;
#X floatatom 151 150 5 0 0 0 - - -;
#X obj 48 163 int;
#X msg 72 106 \$1 500;
#X obj 597 151 bng 15 250 50 0 empty empty empty 17 7 0 10 -262144
-1 -1;
#X obj 371 163 loadbang;
#X obj 305 12 delay 600;
#X obj 375 184 f \$1;
#X msg 42 229 1 1 1 \$1;
#X msg 90 273 width 10;
#X obj 16 334 demultiplex 0 1;
#X obj 287 442 translateXYZ;
#X obj 117 373 t a a;
#X obj 115 407 separator;
#X obj 210 401 separator;
#X obj 312 392 * -1;
#X obj 166 445 translateXYZ;
#X obj 332 348 - 0.05;
#X obj 311 478 rectangle 6 0.05;
#X obj 166 472 rectangle 6 0.05;
#X obj 72 84 ../pdmtl/scale.linear 0 127 -6 6;
#X obj 343 276 ../pdmtl/scale.linear 0 127 0 4;
#X obj 552 35 ../pdmtl/midi.note.split;
#X connect 0 0 20 0;
#X connect 1 0 31 0;
#X connect 1 0 0 2;
#X connect 2 0 47 0;
#X connect 2 0 19 2;
#X connect 3 0 2 0;
#X connect 9 0 7 0;
#X connect 9 1 8 0;
#X connect 10 0 9 0;
#X connect 10 0 40 1;
#X connect 11 0 12 0;
#X connect 12 0 10 0;
#X connect 13 0 12 1;
#X connect 14 0 39 0;
#X connect 17 0 50 0;
#X connect 18 0 51 0;
#X connect 20 0 21 0;
#X connect 21 0 40 0;
#X connect 22 0 21 1;
#X connect 23 0 25 0;
#X connect 23 0 11 0;
#X connect 24 0 52 0;
#X connect 25 0 26 0;
#X connect 26 0 0 0;
#X connect 27 0 25 1;
#X connect 28 0 25 1;
#X connect 29 0 1 0;
#X connect 30 0 50 0;
#X connect 30 1 29 0;
#X connect 30 2 36 0;
#X connect 32 0 0 2;
#X connect 33 0 1 0;
#X connect 35 0 37 0;
#X connect 36 0 28 0;
#X connect 37 0 13 0;
#X connect 38 0 20 1;
#X connect 40 0 19 0;
#X connect 40 1 42 0;
#X connect 41 0 48 0;
#X connect 42 0 43 0;
#X connect 42 1 44 0;
#X connect 43 0 46 0;
#X connect 44 0 41 0;
#X connect 45 0 41 2;
#X connect 46 0 49 0;
#X connect 47 0 45 0;
#X connect 47 0 46 2;
#X connect 50 0 33 0;
#X connect 51 0 3 0;
#X connect 52 0 16 0;
#X connect 52 0 30 0;
#X connect 52 1 15 0;
#X connect 52 1 34 0;
#X connect 52 1 27 0;
#X connect 52 1 51 0;
#X connect 52 2 28 0;
