#N canvas 0 0 1022 687 10;
#X obj 57 30 inlet note;
#X obj 133 381 outlet;
#X obj 126 258 line;
#X obj 126 232 pack;
#X obj 224 117 demultiplex 0 1;
#X msg 221 173 0;
#X obj 232 146 t b b;
#X msg 265 170 1;
#X obj 385 395 outlet interval;
#X obj 102 72 t f b;
#X obj 564 30 inlet reset;
#X msg 561 64 0;
#X obj 313 32 inlet slide_ms;
#X obj 341 209 f \$1;
#X connect 0 0 9 0;
#X connect 2 0 1 0;
#X connect 3 0 2 0;
#X connect 4 0 6 0;
#X connect 4 1 13 0;
#X connect 5 0 3 1;
#X connect 6 0 5 0;
#X connect 6 1 7 0;
#X connect 7 0 4 1;
#X connect 9 0 3 0;
#X connect 9 1 4 0;
#X connect 10 0 11 0;
#X connect 11 0 4 1;
#X connect 12 0 13 1;
#X connect 13 0 3 1;
#X connect 13 0 8 0;
