#N canvas 0 22 886 562 10;
#N canvas 121 95 837 602 SNARE 0;
#X obj 140 416 pix_texture;
#N canvas 18 202 749 484 noise 0;
#X obj 128 58 inlet;
#X obj 145 263 outlet;
#X obj 221 25 noise~;
#X floatatom 640 126 5 0 0 0 - - -;
#X obj 393 197 *;
#X floatatom 388 234 5 0 0 0 - - -;
#X msg 391 159 32 32;
#X obj 344 42 block~ 1024;
#X obj 247 77 lop~ 200;
#X obj 153 199 pix_sig2pix~ 32 32;
#X obj 436 60 loadbang;
#X msg 438 81 0.06;
#X obj 435 115 nbx 5 14 -1e+37 1e+37 0 0 empty empty empty 0 -8 0 10
-262144 -1 -1 0.06 256;
#X obj 261 150 expr~ $v1 > $f2;
#X obj 484 3 inlet;
#X obj 477 206 pow 2;
#X floatatom 475 245 5 0 0 0 - - -;
#X obj 478 164 t b f;
#X msg 473 185 2;
#X obj 494 28 int;
#X msg 308 285 set \$1 1 1;
#X obj 510 49 max 0;
#X obj 510 73 + 6;
#X msg 441 374 dimen \$1 \$1;
#X obj 553 282 sqrt;
#X obj 607 7 inlet dist;
#X obj 722 8 inlet lop;
#X obj 600 44 / 127;
#X msg 590 71 amount \$1;
#X obj 243 112 ../pdmtl/fx.distortion~;
#X connect 0 0 9 0;
#X connect 2 0 8 0;
#X connect 3 0 8 1;
#X connect 4 0 5 0;
#X connect 6 0 4 0;
#X connect 8 0 29 0;
#X connect 9 0 1 0;
#X connect 10 0 11 0;
#X connect 11 0 12 0;
#X connect 12 0 13 1;
#X connect 13 0 9 2;
#X connect 13 0 9 1;
#X connect 13 0 9 0;
#X connect 13 0 9 3;
#X connect 14 0 19 0;
#X connect 15 0 16 0;
#X connect 15 0 20 0;
#X connect 15 0 24 0;
#X connect 17 0 18 0;
#X connect 17 1 15 1;
#X connect 18 0 15 0;
#X connect 19 0 21 0;
#X connect 20 0 7 0;
#X connect 21 0 22 0;
#X connect 22 0 17 0;
#X connect 23 0 9 0;
#X connect 24 0 23 0;
#X connect 25 0 27 0;
#X connect 26 0 3 0;
#X connect 27 0 28 0;
#X connect 28 0 29 2;
#X connect 29 0 13 0;
#X restore 54 250 pd noise;
#X obj 356 295 loadbang;
#X msg 279 322 quality 0;
#X obj 329 50 inlet block;
#X obj 448 53 inlet dist;
#X obj 555 52 inlet lop;
#X obj 149 539 square;
#X obj 56 68 inlet;
#X obj 197 100 change;
#X connect 0 0 7 0;
#X connect 1 0 0 0;
#X connect 2 0 3 0;
#X connect 3 0 0 0;
#X connect 4 0 9 0;
#X connect 5 0 1 2;
#X connect 6 0 1 3;
#X connect 8 0 1 0;
#X connect 9 0 1 1;
#X restore 101 572 pd SNARE;
#X obj 559 261 hsl 128 15 0 127 0 0 empty empty dist -2 -6 0 10 -262144
-1 -1 9000 1;
#X obj -44 443 square;
#X obj 49 334 tgl 15 0 empty empty empty 17 7 0 10 -262144 -1 -1 0
1;
#X obj -45 413 color;
#X msg 282 135 1;
#X msg 266 199 0;
#X obj -64 65 spigot;
#X obj -53 268 separator;
#X obj -121 298 separator;
#X obj 192 65 sel 0;
#X obj -113 473 color;
#X obj 72 388 == 0;
#X msg -11 388 \$1 \$1 \$1 1;
#X msg 85 448 \$1 \$1 \$1 1;
#X obj 566 192 loadbang;
#X obj -71 191 scaleXYZ;
#X obj 31 202 f;
#X obj 149 281 line;
#X obj -118 415 alpha;
#X obj 265 167 delay 200;
#X msg 147 248 1 \, 2 200;
#X obj -78 217 t a a a;
#X msg 398 341 4;
#X msg 304 418 5;
#X msg 406 452 7;
#X obj 49 496 demultiplex 0 1 2;
#N canvas 121 95 837 602 SNARE 0;
#X obj 140 416 pix_texture;
#N canvas 18 202 749 484 noise 0;
#X obj 128 58 inlet;
#X obj 145 263 outlet;
#X obj 221 25 noise~;
#X floatatom 640 126 5 0 0 0 - - -;
#X obj 393 197 *;
#X floatatom 388 234 5 0 0 0 - - -;
#X msg 391 159 32 32;
#X obj 344 42 block~ 1024;
#X obj 247 77 lop~ 200;
#X obj 153 199 pix_sig2pix~ 32 32;
#X obj 436 60 loadbang;
#X msg 438 81 0.06;
#X obj 435 115 nbx 5 14 -1e+37 1e+37 0 0 empty empty empty 0 -8 0 10
-262144 -1 -1 0.06 256;
#X obj 261 150 expr~ $v1 > $f2;
#X obj 484 3 inlet;
#X obj 477 206 pow 2;
#X floatatom 475 245 5 0 0 0 - - -;
#X obj 478 164 t b f;
#X msg 473 185 2;
#X obj 494 28 int;
#X msg 308 285 set \$1 1 1;
#X obj 510 49 max 0;
#X obj 510 73 + 6;
#X msg 441 374 dimen \$1 \$1;
#X obj 553 282 sqrt;
#X obj 607 7 inlet dist;
#X obj 722 8 inlet lop;
#X obj 600 44 / 127;
#X msg 590 71 amount \$1;
#X obj 243 112 ../pdmtl/fx.distortion~;
#X connect 0 0 9 0;
#X connect 2 0 8 0;
#X connect 3 0 8 1;
#X connect 4 0 5 0;
#X connect 6 0 4 0;
#X connect 8 0 29 0;
#X connect 9 0 1 0;
#X connect 10 0 11 0;
#X connect 11 0 12 0;
#X connect 12 0 13 1;
#X connect 13 0 9 2;
#X connect 13 0 9 1;
#X connect 13 0 9 0;
#X connect 13 0 9 3;
#X connect 14 0 19 0;
#X connect 15 0 16 0;
#X connect 15 0 20 0;
#X connect 15 0 24 0;
#X connect 17 0 18 0;
#X connect 17 1 15 1;
#X connect 18 0 15 0;
#X connect 19 0 21 0;
#X connect 20 0 7 0;
#X connect 21 0 22 0;
#X connect 22 0 17 0;
#X connect 23 0 9 0;
#X connect 24 0 23 0;
#X connect 25 0 27 0;
#X connect 26 0 3 0;
#X connect 27 0 28 0;
#X connect 28 0 29 2;
#X connect 29 0 13 0;
#X restore 54 250 pd noise;
#X obj 356 295 loadbang;
#X msg 279 322 quality 0;
#X obj 329 50 inlet block;
#X obj 448 53 inlet dist;
#X obj 555 52 inlet lop;
#X obj 149 539 square;
#X obj 56 68 inlet;
#X obj 197 100 change;
#X connect 0 0 7 0;
#X connect 1 0 0 0;
#X connect 2 0 3 0;
#X connect 3 0 0 0;
#X connect 4 0 9 0;
#X connect 5 0 1 2;
#X connect 6 0 1 3;
#X connect 8 0 1 0;
#X connect 9 0 1 1;
#X restore 252 571 pd SNARE;
#X obj 273 382 loadbang;
#X msg 244 413 4;
#N canvas 121 95 837 602 SNARE 0;
#X obj 140 416 pix_texture;
#N canvas 18 202 749 484 noise 0;
#X obj 128 58 inlet;
#X obj 145 263 outlet;
#X obj 221 25 noise~;
#X floatatom 640 126 5 0 0 0 - - -;
#X obj 393 197 *;
#X floatatom 388 234 5 0 0 0 - - -;
#X msg 391 159 32 32;
#X obj 344 42 block~ 1024;
#X obj 247 77 lop~ 200;
#X obj 153 199 pix_sig2pix~ 32 32;
#X obj 436 60 loadbang;
#X msg 438 81 0.06;
#X obj 435 115 nbx 5 14 -1e+37 1e+37 0 0 empty empty empty 0 -8 0 10
-262144 -1 -1 0.06 256;
#X obj 261 150 expr~ $v1 > $f2;
#X obj 484 3 inlet;
#X obj 477 206 pow 2;
#X floatatom 475 245 5 0 0 0 - - -;
#X obj 478 164 t b f;
#X msg 473 185 2;
#X obj 494 28 int;
#X msg 308 285 set \$1 1 1;
#X obj 510 49 max 0;
#X obj 510 73 + 6;
#X msg 441 374 dimen \$1 \$1;
#X obj 553 282 sqrt;
#X obj 607 7 inlet dist;
#X obj 722 8 inlet lop;
#X obj 600 44 / 127;
#X msg 590 71 amount \$1;
#X obj 243 112 ../pdmtl/fx.distortion~;
#X connect 0 0 9 0;
#X connect 2 0 8 0;
#X connect 3 0 8 1;
#X connect 4 0 5 0;
#X connect 6 0 4 0;
#X connect 8 0 29 0;
#X connect 9 0 1 0;
#X connect 10 0 11 0;
#X connect 11 0 12 0;
#X connect 12 0 13 1;
#X connect 13 0 9 2;
#X connect 13 0 9 1;
#X connect 13 0 9 0;
#X connect 13 0 9 3;
#X connect 14 0 19 0;
#X connect 15 0 16 0;
#X connect 15 0 20 0;
#X connect 15 0 24 0;
#X connect 17 0 18 0;
#X connect 17 1 15 1;
#X connect 18 0 15 0;
#X connect 19 0 21 0;
#X connect 20 0 7 0;
#X connect 21 0 22 0;
#X connect 22 0 17 0;
#X connect 23 0 9 0;
#X connect 24 0 23 0;
#X connect 25 0 27 0;
#X connect 26 0 3 0;
#X connect 27 0 28 0;
#X connect 28 0 29 2;
#X connect 29 0 13 0;
#X restore 54 250 pd noise;
#X obj 356 295 loadbang;
#X msg 279 322 quality 0;
#X obj 329 50 inlet block;
#X obj 448 53 inlet dist;
#X obj 555 52 inlet lop;
#X obj 149 539 square;
#X obj 56 68 inlet;
#X obj 197 100 change;
#X connect 0 0 7 0;
#X connect 1 0 0 0;
#X connect 2 0 3 0;
#X connect 3 0 0 0;
#X connect 4 0 9 0;
#X connect 5 0 1 2;
#X connect 6 0 1 3;
#X connect 8 0 1 0;
#X connect 9 0 1 1;
#X restore 393 563 pd SNARE;
#X obj 352 274 int;
#X obj 341 198 / 40;
#X msg 570 214 90;
#X obj 351 104 / 127;
#X obj 361 158 + 100;
#X obj 523 83 interval 0.25;
#X obj 267 43 t b b b f b;
#X obj 359 135 * 1;
#X obj -39 140 t a b;
#X obj 189 12 inlet velocity;
#X obj -62 14 inlet gemhead;
#X obj -69 105 ../pdmtl/gems.fit.scale fill;
#X connect 1 0 0 2;
#X connect 1 0 27 2;
#X connect 1 0 30 2;
#X connect 3 0 12 0;
#X connect 3 0 13 0;
#X connect 4 0 2 0;
#X connect 5 0 7 1;
#X connect 6 0 7 1;
#X connect 7 0 42 0;
#X connect 8 0 4 0;
#X connect 9 0 19 0;
#X connect 10 1 37 0;
#X connect 11 0 26 0;
#X connect 12 0 14 0;
#X connect 13 0 4 1;
#X connect 14 0 11 1;
#X connect 15 0 33 0;
#X connect 16 0 22 0;
#X connect 17 0 16 1;
#X connect 17 0 16 2;
#X connect 17 0 16 3;
#X connect 18 0 17 0;
#X connect 19 0 11 0;
#X connect 20 0 6 0;
#X connect 21 0 18 0;
#X connect 22 1 9 0;
#X connect 22 2 8 0;
#X connect 24 0 27 1;
#X connect 25 0 30 1;
#X connect 26 0 0 0;
#X connect 26 1 27 0;
#X connect 26 2 30 0;
#X connect 28 0 29 0;
#X connect 28 0 24 0;
#X connect 28 0 25 0;
#X connect 29 0 0 1;
#X connect 31 0 26 1;
#X connect 32 0 31 0;
#X connect 33 0 1 0;
#X connect 34 0 38 0;
#X connect 35 0 20 1;
#X connect 36 0 38 1;
#X connect 37 0 21 0;
#X connect 37 1 20 0;
#X connect 37 2 5 0;
#X connect 37 3 32 0;
#X connect 37 3 34 0;
#X connect 37 4 36 0;
#X connect 38 0 35 0;
#X connect 39 0 16 0;
#X connect 39 1 3 0;
#X connect 40 0 10 0;
#X connect 41 0 7 0;
#X connect 42 0 39 0;
