#N canvas 166 91 454 219 10;
#N canvas 0 22 993 681 squareSynth 0;
#X obj 364 -74 inlet;
#X obj 528 439 snapshot~;
#X obj 434 277 phasor~ -8;
#X obj 491 313 *~ 0.99;
#X obj 82 297 scaleXYZ 1 1 1;
#X msg 631 210 0;
#X obj 529 207 / 127;
#X msg 150 448 draw fill;
#X obj 95 512 square;
#X msg 165 483 draw line;
#X floatatom 186 123 5 0 0 0 - - -;
#X obj 75 164 scaleXYZ;
#X floatatom 315 272 5 0 0 0 - - -;
#X obj 61 -76 inlet;
#X obj 906 435 outlet;
#X obj 100 -14 t a b;
#X obj 530 78 t f b;
#X obj 530 21 t b b;
#X obj 316 108 ./slide;
#X obj 283 25 t f b;
#X obj 345 60 ./slideinterval 4;
#X obj 353 189 * -16;
#X obj 364 -45 ../pdmtl/midi.note.split;
#X obj 210 -3 ../pdmtl/scale.3point 0 60 127 5.5 1.293 0.933;
#X obj 76 49 ../pdmtl/gems.fit.scale fill;
#X obj 69 224 ../pdmtl/gems.multi.cube 8 8 \$2;
#X obj 355 161 ../pdmtl/convert.ms2freq;
#X connect 0 0 22 0;
#X connect 1 0 4 1;
#X connect 1 0 4 2;
#X connect 2 0 3 0;
#X connect 3 0 1 0;
#X connect 4 0 8 0;
#X connect 5 0 2 1;
#X connect 6 0 3 1;
#X connect 7 0 8 0;
#X connect 9 0 8 0;
#X connect 10 0 11 1;
#X connect 10 0 11 2;
#X connect 11 0 25 0;
#X connect 12 0 25 3;
#X connect 13 0 15 0;
#X connect 15 0 24 0;
#X connect 15 1 1 0;
#X connect 16 0 6 0;
#X connect 16 1 5 0;
#X connect 17 0 18 2;
#X connect 17 1 14 0;
#X connect 18 0 10 0;
#X connect 18 1 26 0;
#X connect 19 0 18 0;
#X connect 19 1 20 0;
#X connect 20 0 18 1;
#X connect 21 0 2 0;
#X connect 22 0 23 0;
#X connect 22 1 16 0;
#X connect 22 2 17 0;
#X connect 23 0 19 0;
#X connect 24 0 11 0;
#X connect 25 0 4 0;
#X connect 26 0 21 0;
#X restore 270 178 pd squareSynth;
#X obj 155 99 ./ctl \$1;
#X obj 120 23 inlet;
#X connect 0 0 1 1;
#X connect 1 0 0 0;
#X connect 1 1 0 1;
#X connect 2 0 1 0;
