#N canvas 344 214 579 437 10;
#X obj 163 374 square;
#X obj 148 333 color;
#X obj 46 -23 inlet;
#X obj 105 183 ./blink.rate;
#X obj 271 246 tgl 15 0 empty empty empty 17 7 0 10 -262144 -1 -1 0
1;
#X obj 273 136 b;
#X obj 204 99 t f b;
#X obj 67 5 ./ctl \$1 0;
#X msg 282 168 set 0;
#X msg 306 342 1 1 1 \$1;
#X obj 166 353 alpha;
#X obj 204 70 ../pdmtl/midi.note.split;
#X obj 122 295 ../pdmtl/gems.fit.scale fill;
#X connect 1 0 10 0;
#X connect 2 0 7 0;
#X connect 3 0 12 0;
#X connect 3 1 4 0;
#X connect 4 0 9 0;
#X connect 5 0 3 2;
#X connect 5 0 8 0;
#X connect 6 0 3 1;
#X connect 6 1 5 0;
#X connect 7 0 3 0;
#X connect 7 1 11 0;
#X connect 8 0 4 0;
#X connect 9 0 1 1;
#X connect 10 0 0 0;
#X connect 11 0 6 0;
#X connect 11 2 7 1;
#X connect 12 0 1 0;
