#N canvas 1308 222 450 300 10;
#X obj 114 128 dollarg;
#X obj 113 28 inlet;
#X obj 118 256 outlet;
#X obj 160 155 sel 0;
#X msg 145 191 0;
#X obj 279 147 r panic-s;
#X obj 277 83 s panic-r;
#X obj 113 66 t b b;
#X msg 279 179 0;
#X connect 0 0 2 0;
#X connect 0 1 3 0;
#X connect 1 0 7 0;
#X connect 3 0 4 0;
#X connect 4 0 2 0;
#X connect 5 0 8 0;
#X connect 7 0 0 0;
#X connect 7 1 6 0;
#X connect 8 0 2 0;
