#N canvas 314 265 450 300 10;
#X obj 59 24 inlet;
#X obj 59 118 spigot;
#X obj 205 7 inlet;
#X obj 240 194 square;
#X obj 220 118 separator;
#X obj 166 114 t a a;
#X obj 120 146 separator;
#X obj 117 194 colorRGB 0 0 0 1;
#X obj 222 152 colorRGB 1 1 1 1;
#X obj 62 232 ../pdmtl/gems.text @text TVESTROY @font pixel.ttf;
#X obj 230 170 ../pdmtl/gems.fit.scale fill;
#X connect 0 0 1 0;
#X connect 1 0 5 0;
#X connect 2 0 1 1;
#X connect 4 0 8 0;
#X connect 5 0 6 0;
#X connect 5 1 4 0;
#X connect 6 0 7 0;
#X connect 7 0 9 0;
#X connect 8 0 10 0;
#X connect 10 0 3 0;
