#N canvas 323 226 1022 687 10;
#X obj 430 -27 inlet;
#X obj 201 72 line;
#X obj 147 65 > 0;
#X obj 447 119 t b a;
#X obj 44 111 spigot;
#X obj -21 -13 inlet gemhead;
#X obj 28 178 separator;
#X obj 434 9 sel 0;
#X msg 217 45 1 \, 0 \$1;
#X obj 215 11 ./interval 0.5;
#X obj 115 242 * 0.9;
#X obj 73 504 square;
#X obj 70 370 scaleXYZ;
#X obj 470 184 expr 1-pow((127-$f1)/127 \, 2);
#X obj 94 431 alpha;
#X obj 87 398 colorRGB;
#X obj 114 207 ../pdmtl/flow.smooth 1 0.1;
#X obj 65 306 ../pdmtl/gems.fit.scale fill;
#X connect 0 0 7 0;
#X connect 1 0 2 0;
#X connect 1 0 15 4;
#X connect 1 0 16 0;
#X connect 2 0 4 1;
#X connect 3 0 9 0;
#X connect 3 1 13 0;
#X connect 4 0 6 0;
#X connect 5 0 4 0;
#X connect 6 0 17 0;
#X connect 7 1 3 0;
#X connect 8 0 1 0;
#X connect 9 0 8 0;
#X connect 10 0 12 1;
#X connect 12 0 15 0;
#X connect 13 0 10 1;
#X connect 14 0 11 0;
#X connect 15 0 14 0;
#X connect 16 0 10 0;
#X connect 17 0 12 0;
