#N canvas 294 230 451 343 10;
#N canvas 1080 156 600 555 up&down 0;
#X obj 25 21 inlet;
#X obj 356 20 inlet;
#X obj 64 479 square;
#X obj 121 180 * 1;
#X obj 172 221 osc~;
#X obj 166 270 snapshot~;
#X obj 53 317 translateXYZ;
#X msg 285 174 -0.25;
#X obj 421 159 / 127;
#X obj 57 400 scaleXYZ;
#X obj 98 111 * 0.25;
#X obj 437 468 outlet;
#X obj 34 120 t a b;
#X obj 277 67 t f b b;
#X obj 350 129 ./interval;
#X obj 428 213 t b b;
#X obj 123 83 ../pdmtl/convert.ms2freq;
#X obj -5 229 ../pdmtl/gems.fit.scale fill;
#X obj 189 139 ../pdmtl/convert.m2speed;
#X obj 422 63 ../pdmtl/midi.note.split;
#X connect 0 0 12 0;
#X connect 1 0 19 0;
#X connect 3 0 4 0;
#X connect 4 0 5 0;
#X connect 5 0 6 2;
#X connect 6 0 9 0;
#X connect 7 0 4 1;
#X connect 8 0 9 2;
#X connect 9 0 2 0;
#X connect 10 0 3 0;
#X connect 12 0 17 0;
#X connect 12 1 5 0;
#X connect 13 0 18 0;
#X connect 13 1 14 0;
#X connect 13 2 7 0;
#X connect 14 0 16 0;
#X connect 15 1 11 0;
#X connect 16 0 3 1;
#X connect 17 0 6 0;
#X connect 18 0 10 0;
#X connect 19 0 13 0;
#X connect 19 1 8 0;
#X connect 19 2 15 0;
#X restore 140 210 pd up&down;
#X obj 133 113 ./ctl \$1;
#X obj 115 -8 inlet;
#X connect 0 0 1 1;
#X connect 1 0 0 0;
#X connect 1 1 0 1;
#X connect 2 0 1 0;
