#N canvas 373 130 547 495 10;
#X obj 91 175 *~ 2;
#X obj 92 207 -~ 1;
#X obj 192 31 inlet~;
#X obj 91 290 outlet~;
#X text 67 10 frequency;
#X text 201 13 width (-1 to 1);
#X obj 72 31 inlet~;
#X obj 83 116 expr~ $v1>$v2;
#X connect 0 0 1 0;
#X connect 1 0 3 0;
#X connect 2 0 7 1;
#X connect 6 0 7 0;
#X connect 7 0 0 0;
