#N canvas 188 49 604 622 10;
#X obj 220 -49 inlet;
#X obj 83 442 *~;
#X obj 83 474 outlet~;
#X obj 22 339 osc~ 880;
#X msg 162 73 0;
#X obj 234 356 vline~ 1;
#X obj 468 -48 loadbang;
#X obj 22 236 mtof;
#X obj 203 -20 route bang;
#X obj 193 22 t b b b;
#X obj 296 207 f 25;
#X msg 277 260 0 \$1 \$1;
#X obj 428 247 pack f 25;
#X obj 478 -4 dollarg;
#X msg 331 153 1;
#X msg 428 283 \$1 \$2;
#X obj 282 9 t f b;
#X obj 476 30 ../../pdmtl/list.split 1;
#X connect 0 0 8 0;
#X connect 1 0 2 0;
#X connect 3 0 1 0;
#X connect 4 0 3 1;
#X connect 5 0 1 1;
#X connect 6 0 13 0;
#X connect 7 0 3 0;
#X connect 8 0 9 0;
#X connect 8 1 16 0;
#X connect 9 0 4 0;
#X connect 9 1 10 0;
#X connect 9 2 14 0;
#X connect 10 0 11 0;
#X connect 11 0 5 0;
#X connect 12 0 15 0;
#X connect 13 0 17 0;
#X connect 14 0 12 0;
#X connect 15 0 5 0;
#X connect 16 0 7 0;
#X connect 16 1 14 0;
#X connect 17 0 7 0;
#X connect 17 1 12 1;
#X connect 17 1 10 1;
